<?xml version="1.0" encoding="UTF-8" standalone="no"?>
<!-- Created with Inkscape (http://www.inkscape.org/) -->

<svg
   width="30"
   height="30"
   viewBox="0 0 30 30"
   version="1.1"
   id="svg5"
   inkscape:version="1.1 (ce6663b3b7, 2021-05-25)"
   sodipodi:docname="barco.svg"
   xmlns:inkscape="http://www.inkscape.org/namespaces/inkscape"
   xmlns:sodipodi="http://sodipodi.sourceforge.net/DTD/sodipodi-0.dtd"
   xmlns="http://www.w3.org/2000/svg"
   xmlns:svg="http://www.w3.org/2000/svg">
  <sodipodi:namedview
     id="namedview7"
     pagecolor="#ffffff"
     bordercolor="#666666"
     borderopacity="1.0"
     inkscape:pageshadow="2"
     inkscape:pageopacity="0.0"
     inkscape:pagecheckerboard="0"
     inkscape:document-units="mm"
     showgrid="false"
     inkscape:zoom="0.70299985"
     inkscape:cx="596.72844"
     inkscape:cy="362.73123"
     inkscape:window-width="1301"
     inkscape:window-height="732"
     inkscape:window-x="65"
     inkscape:window-y="0"
     inkscape:window-maximized="1"
     inkscape:current-layer="layer1"
     width="5000000mm" />
  <defs
     id="defs2">
    <clipPath
       clipPathUnits="userSpaceOnUse"
       id="clipPath25">
      <path
         d="M 0,980 H 1400 V 0 H 0 Z"
         id="path23" />
    </clipPath>
  </defs>
  <g
     inkscape:label="Camada 1"
     inkscape:groupmode="layer"
     id="layer1">
    <g
       id="g27"
       transform="matrix(0.13024738,0,0,-0.12027188,13.627163,6.756485)">
      <path
         d="m 0,0 h 36.636 v -25.558 h 16.915 v -25.561 h 14.846 v -45.01 l -50.077,22.653 63.553,-28.749 c 0,0 -19.517,-48.863 -46.538,-86.513 -6.576,2.17 -12.434,6.379 -17.015,11.526 -9.416,-10.264 -17.195,-11.43 -17.195,-11.43 -26.553,37.475 -46.362,86.417 -46.362,86.417 l 13.472,6.092 v 45.014 h 14.842 v 25.561 H 0 Z"
         style="fill:#78f0f0;fill-opacity:1;fill-rule:evenodd;stroke:none"
         id="path29" />
    </g>
    <path
       d="m 14.676682,7.464916 h 4.771745 v 3.073911 h -4.771745 z"
       style="fill:#faf3bf;fill-opacity:1;fill-rule:evenodd;stroke:none;stroke-width:0.125161"
       id="path31" />
    <g
       id="g33"
       transform="matrix(0.13024738,0,0,-0.12027188,10.540364,13.615611)">
      <path
         d="M 0,0 H 100.162 V -45.01 L 50.085,-22.357 0,-45.013 Z"
         style="fill:#faf3bf;fill-opacity:1;fill-rule:evenodd;stroke:none"
         id="path35" />
    </g>
    <g
       id="g37"
       transform="matrix(0.13024738,0,0,-0.12027188,15.129317,4.475345)">
      <path
         d="M 0,0 26.959,7.253 0,28.666 v -22.1 z"
         style="fill:#faf3bf;fill-opacity:1;fill-rule:evenodd;stroke:none"
         id="path39" />
    </g>
    <g
       id="g41"
       transform="matrix(0.13024738,0,0,-0.12027188,15.129317,15.746365)">
      <path
         d="m 0,0 -57.582,-26.045 c 5.148,-12.054 21.456,-48.562 42.202,-78.653 2.694,1.162 7.02,3.701 11.999,9.124 1.717,1.863 4.63,1.991 6.492,0.273 l 0.325,-0.324 c 2.132,-2.39 4.536,-4.543 7.134,-6.303 l 0.004,0.011 c 1.514,-1.029 3.118,-1.943 4.778,-2.706 21.038,30.182 37.157,66.545 42.246,78.569 z M -65.445,-19.506 -1.888,9.243 V 9.235 c 1.159,0.518 2.533,0.566 3.778,0.008 l 63.398,-28.678 c 2.35,-0.955 3.484,-3.639 2.532,-5.991 -0.051,-0.139 -19.579,-49.026 -46.851,-87.15 -1.08,-1.811 -3.309,-2.69 -5.393,-2.006 -3.601,1.183 -7.023,2.928 -10.149,5.043 l 0.002,0.01 -0.002,0.004 c -1.922,1.308 -3.744,2.753 -5.442,4.309 -8.917,-8.256 -16.046,-9.357 -16.059,-9.357 l -0.008,0.014 c -1.779,-0.441 -3.732,0.214 -4.853,1.801 -26.904,37.971 -46.832,87.193 -46.887,87.332 h 0.008 c -0.925,2.276 0.11,4.905 2.369,5.92"
         style="fill:#02335c;fill-opacity:1;fill-rule:nonzero;stroke:none"
         id="path43" />
    </g>
    <g
       id="g45"
       transform="matrix(0.13024738,0,0,-0.12027188,8.6063733,11.896057)">
      <path
         d="m 0,0 h 0.117 100.044 c 2.543,0 4.607,-2.064 4.607,-4.607 v -0.12 -44.889 c 0,-2.543 -2.064,-4.606 -4.607,-4.606 -0.748,0 -1.442,0.18 -2.069,0.494 L 50.081,-32.013 1.887,-53.81 c -2.312,-1.043 -5.044,-0.011 -6.082,2.3 -0.277,0.618 -0.408,1.26 -0.408,1.891 H -4.605 V -4.607 C -4.605,-2.064 -2.546,0 0,0 M 95.556,-9.212 H 4.602 v -33.276 l 43.591,19.717 v -0.007 c 1.159,0.517 2.533,0.566 3.778,0.007 L 95.556,-42.48 Z"
         style="fill:#02335c;fill-opacity:1;fill-rule:nonzero;stroke:none"
         id="path47" />
    </g>
    <path
       d="m 11.139424,11.896091 h 7.979347 V 9.929767 h -7.979347 z m 8.579135,1.107949 h -9.163295 -0.01563 c -0.33135,0 -0.6000499,-0.248123 -0.6000499,-0.553971 V 9.390227 9.376307 c 0,-0.305857 0.2686999,-0.554093 0.6000499,-0.554093 h 9.163294 0.01562 c 0.331218,0 0.599918,0.248236 0.599918,0.554093 v 3.059359 0.01439 c 0,0.305849 -0.2687,0.553971 -0.599918,0.553971"
       style="fill:#02335c;fill-opacity:1;fill-rule:nonzero;stroke:none;stroke-width:0.125161"
       id="path49" />
    <g
       id="g51"
       transform="matrix(0.13024738,0,0,-0.12027188,12.743525,5.748)">
      <path
         d="m 0,0 h 0.122 36.515 c 2.543,0 4.602,-2.063 4.602,-4.605 v -0.121 -25.441 c 0,-2.542 -2.059,-4.602 -4.602,-4.602 H 36.515 0 c -2.543,0 -4.606,2.06 -4.606,4.602 v 0.122 25.44 C -4.606,-2.063 -2.543,0 0,0 M 32.03,-9.211 H 4.606 V -25.56 H 32.03 Z"
         style="fill:#02335c;fill-opacity:1;fill-rule:nonzero;stroke:none"
         id="path53" />
    </g>
    <g
       id="g55"
       transform="matrix(0.13024738,0,0,-0.12027188,15.729172,6.301898)">
      <path
         d="m 0,0 c 0,-2.543 -2.063,-4.606 -4.605,-4.606 -2.544,0 -4.604,2.063 -4.604,4.606 v 21.753 22.1 c 0,2.544 2.06,4.607 4.604,4.607 1.186,0 2.266,-0.449 3.08,-1.181 L 25.216,26.037 C 27.2,24.461 27.527,21.563 25.951,19.579 25.313,18.775 24.464,18.248 23.54,18.002 V 18 L 0,11.665 Z M 0,21.753 V 21.187 L 12.355,24.512 0,34.325 Z"
         style="fill:#02335c;fill-opacity:1;fill-rule:nonzero;stroke:none"
         id="path57" />
    </g>
    <g
       id="g59"
       transform="matrix(0.13024738,0,0,-0.12027188,2.9943138,27.99142)">
      <path
         d="M 0,0 C -1.725,1.854 -1.621,4.765 0.235,6.49 2.087,8.212 5.002,8.108 6.724,6.256 13.103,-0.61 19.396,-4.278 25.541,-4.371 c 6.138,-0.099 12.586,3.34 19.361,10.627 1.725,1.852 4.638,1.956 6.49,0.234 l 0.235,-0.234 0.1,-0.107 c 6.738,-7.212 13.165,-10.619 19.261,-10.52 6.148,0.093 12.434,3.754 18.82,10.627 1.721,1.852 4.636,1.956 6.49,0.234 l 0.234,-0.234 0.121,-0.132 c 2.402,-2.574 4.809,-4.699 7.193,-6.344 2.287,-1.58 4.561,-2.719 6.78,-3.395 3.701,-1.122 7.482,-0.991 11.298,0.455 4.113,1.563 8.391,4.685 12.787,9.416 1.724,1.852 4.636,1.956 6.492,0.234 l 0.235,-0.234 0.097,-0.107 c 6.738,-7.212 13.165,-10.619 19.261,-10.52 6.148,0.093 12.434,3.754 18.82,10.627 1.722,1.852 4.637,1.956 6.489,0.234 1.853,-1.725 1.96,-4.636 0.235,-6.49 -8.128,-8.745 -16.595,-13.41 -25.396,-13.551 -7.68,-0.124 -15.321,3.181 -22.876,10.188 -4.275,-3.958 -8.585,-6.752 -12.908,-8.39 -5.768,-2.188 -11.512,-2.368 -17.197,-0.642 -3.165,0.959 -6.287,2.505 -9.337,4.615 -1.831,1.264 -3.65,2.74 -5.457,4.417 C 86.076,-9.935 78.733,-13.431 71.137,-13.551 63.453,-13.675 55.815,-10.37 48.259,-3.37 40.7,-10.37 33.076,-13.675 25.396,-13.551 16.588,-13.41 8.125,-8.745 0,0"
         style="fill:#02335c;fill-opacity:1;fill-rule:nonzero;stroke:none"
         id="path61" />
    </g>
  </g>
</svg>
