<?xml version="1.0" encoding="UTF-8" standalone="no"?>
<!-- Created with Inkscape (http://www.inkscape.org/) -->

<svg
   version="1.1"
   id="svg9"
   width="30"
   height="30"
   viewBox="0 0 30 30"
   sodipodi:docname="whiteWaves.svg"
   inkscape:version="1.1 (ce6663b3b7, 2021-05-25)"
   xmlns:inkscape="http://www.inkscape.org/namespaces/inkscape"
   xmlns:sodipodi="http://sodipodi.sourceforge.net/DTD/sodipodi-0.dtd"
   xmlns="http://www.w3.org/2000/svg"
   xmlns:svg="http://www.w3.org/2000/svg">
  <defs
     id="defs13" />
  <sodipodi:namedview
     id="namedview11"
     pagecolor="#ffffff"
     bordercolor="#666666"
     borderopacity="1.0"
     inkscape:pageshadow="2"
     inkscape:pageopacity="0"
     inkscape:pagecheckerboard="true"
     showgrid="false"
     inkscape:zoom="3.3408"
     inkscape:cx="119.58214"
     inkscape:cy="70.342433"
     inkscape:window-width="1301"
     inkscape:window-height="732"
     inkscape:window-x="65"
     inkscape:window-y="0"
     inkscape:window-maximized="1"
     inkscape:current-layer="g15"
     width="30px" />
  <g
     inkscape:groupmode="layer"
     inkscape:label="Image"
     id="g15">
    <g
       id="g99"
       transform="matrix(0.02163567,0,0,0.02298941,-72.436604,-77.335881)"
       style="fill:#ffffff">
      <path
         id="path105"
         style="fill:#ffffff;fill-opacity:1"
         d="m 4220.8125,3804.3164 c -0.7977,0.3192 -0.5615,0.5575 0.6035,0.6055 1.0541,0.043 1.6448,-0.1931 1.3125,-0.5254 -0.3323,-0.3324 -1.1941,-0.3696 -1.916,-0.08 z m -15.543,0.9902 c -0.9729,0.2536 -0.4195,0.4781 1.2305,0.4981 1.65,0.02 2.4466,-0.1873 1.7695,-0.4609 -0.677,-0.274 -2.027,-0.2919 -3,-0.037 z m 29.4805,0.031 c -0.6875,0.2774 -0.125,0.5039 1.25,0.5039 1.375,0 1.9375,-0.2265 1.25,-0.5039 -0.6875,-0.2774 -1.8125,-0.2774 -2.5,0 z m -39,1 c -0.6875,0.2774 -0.125,0.5039 1.25,0.5039 1.375,0 1.9375,-0.2265 1.25,-0.5039 -0.6875,-0.2774 -1.8125,-0.2774 -2.5,0 z m -5.9375,0.9785 c -0.7977,0.3192 -0.5615,0.5575 0.6035,0.6055 1.0541,0.043 1.6448,-0.1931 1.3125,-0.5254 -0.3323,-0.3324 -1.1941,-0.3696 -1.916,-0.08 z m 76.6875,17.1836 2.9375,3.25 c 1.6154,1.7875 3.0779,3.25 3.25,3.25 0.1721,0 0.3125,-0.1404 0.3125,-0.3125 0,-0.1721 -1.4625,-1.6346 -3.25,-3.25 z m -576.75,0.7578 c -3.9875,0.1898 -0.725,0.3457 7.25,0.3457 7.975,0 11.2375,-0.1559 7.25,-0.3457 -3.9875,-0.1898 -10.5125,-0.1898 -14.5,0 z m -18.9883,1.0352 c -1.244,0.2392 -0.4617,0.444 1.7383,0.455 2.1997,0.011 3.2177,-0.1852 2.2617,-0.4355 -0.9561,-0.2501 -2.7561,-0.2617 -4,-0.019 z m 44.0508,0.023 c -0.7977,0.3192 -0.5615,0.5575 0.6035,0.6055 1.0541,0.043 1.6448,-0.1931 1.3125,-0.5254 -0.3323,-0.3324 -1.1941,-0.3696 -1.916,-0.08 z m -53.0625,1.0215 c -0.6875,0.2774 -0.125,0.5039 1.25,0.5039 1.375,0 1.9375,-0.2265 1.25,-0.5039 -0.6875,-0.2774 -1.8125,-0.2774 -2.5,0 z m -6,1 c -0.6875,0.2774 -0.125,0.5039 1.25,0.5039 1.375,0 1.9375,-0.2265 1.25,-0.5039 -0.6875,-0.2774 -1.8125,-0.2774 -2.5,0 z m -4.9375,0.9785 c -0.7977,0.3192 -0.5615,0.5575 0.6035,0.6055 1.0541,0.043 1.6448,-0.1931 1.3125,-0.5254 -0.3323,-0.3324 -1.1941,-0.3696 -1.916,-0.08 z m -8,2 c -0.7977,0.3192 -0.5615,0.5575 0.6035,0.6055 1.0541,0.043 1.6448,-0.1931 1.3125,-0.5254 -0.3323,-0.3324 -1.1941,-0.3696 -1.916,-0.08 z M 4275,3834 c -0.052,0.052 0.2511,0.4569 0.873,1.25 0.7549,0.9625 1.5424,1.75 1.75,1.75 0.2077,0 0.377,-0.1693 0.377,-0.377 0,-0.2076 -0.7875,-0.9951 -1.75,-1.75 -0.793,-0.6219 -1.1984,-0.9246 -1.25,-0.873 z m -80.1875,7.3164 c -0.7977,0.3192 -0.5615,0.5575 0.6035,0.6055 1.0541,0.043 1.6448,-0.1931 1.3125,-0.5254 -0.3323,-0.3324 -1.1941,-0.3696 -1.916,-0.08 z m 90.6875,4.1836 23.9922,24.25 c 13.1957,13.3375 24.1082,24.25 24.25,24.25 0.1418,0 0.2578,-0.116 0.2578,-0.2578 0,-0.1418 -10.9125,-11.0543 -24.25,-24.25 z m -50.416,5.5 c -0.275,0 1.487,2.025 3.916,4.5 2.429,2.475 4.641,4.5 4.916,4.5 0.275,0 -1.487,-2.025 -3.916,-4.5 -2.429,-2.475 -4.641,-4.5 -4.916,-4.5 z m -559.7402,0.2598 c -3.0296,0.1962 -0.8281,0.3613 5.1562,0.3613 6.05,0 8.6545,-0.16 5.7871,-0.3613 -2.8526,-0.1962 -7.7596,-0.1959 -10.9433,0 z m -16.5938,1.0781 c -0.6875,0.2774 -0.125,0.5039 1.25,0.5039 1.375,0 1.9375,-0.2265 1.25,-0.5039 -0.6875,-0.2774 -1.8125,-0.2774 -2.5,0 z m 121.75,6.1621 6.4707,6.75 c 3.5591,3.7125 6.5966,6.75 6.75,6.75 0.1534,0 0.2793,-0.1259 0.2793,-0.2793 0,-0.1534 -3.0375,-3.1909 -6.75,-6.75 z m 837.5,2.9297 c 0,-0.275 -0.9,-0.018 -2,0.5703 -1.1,0.5887 -2,1.2953 -2,1.5703 0,0.275 0.9,0.018 2,-0.5703 1.1,-0.5887 2,-1.2953 2,-1.5703 z M 3583,3862 c -0.052,-0.052 -0.4569,0.2511 -1.25,0.873 -0.9625,0.7549 -1.75,1.5424 -1.75,1.75 0,0.2077 0.1693,0.377 0.377,0.377 0.2076,0 0.9951,-0.7875 1.75,-1.75 0.6219,-0.793 0.9246,-1.1984 0.873,-1.25 z m 662.5,0.5 2.4238,2.75 c 1.3334,1.5125 2.5709,2.75 2.75,2.75 0.1791,0 0.3262,-0.1471 0.3262,-0.3262 0,-0.1791 -1.2375,-1.4166 -2.75,-2.75 z m -189.791,1.5 c -0.1605,0 -2.298,2.1375 -4.75,4.75 l -4.459,4.75 4.75,-4.459 c 2.6125,-2.452 4.75,-4.5895 4.75,-4.75 0,-0.1605 -0.1305,-0.291 -0.291,-0.291 z M 3796,3875 c -0.052,0.052 0.2511,0.4569 0.873,1.25 0.7549,0.9625 1.5424,1.75 1.75,1.75 0.2077,0 0.377,-0.1693 0.377,-0.377 0,-0.2076 -0.7875,-0.9951 -1.75,-1.75 -0.7931,-0.6219 -1.1984,-0.9246 -1.25,-0.873 z m -233.1895,3 c -0.275,0 -1.315,0.9 -2.3105,2 -0.9955,1.1 -1.5855,2 -1.3105,2 0.275,0 1.315,-0.9 2.3105,-2 0.9955,-1.1 1.5855,-2 1.3105,-2 z m 480,0 c -0.275,0 -1.315,0.9 -2.3105,2 -0.9955,1.1 -1.5855,2 -1.3105,2 0.275,0 1.315,-0.9 2.3105,-2 0.9955,-1.1 1.5855,-2 1.3105,-2 z m 44.1895,2 c -0.052,-0.052 -0.4569,0.2511 -1.25,0.873 -0.9625,0.7549 -1.75,1.5424 -1.75,1.75 0,0.2077 0.1693,0.377 0.377,0.377 0.2076,0 0.9951,-0.7875 1.75,-1.75 0.6219,-0.793 0.9246,-1.1984 0.873,-1.25 z m -491.1895,3 c -0.275,0 -1.315,0.9 -2.3105,2 -0.9955,1.1 -1.5855,2 -1.3105,2 0.275,0 1.315,-0.9 2.3105,-2 0.9955,-1.1 1.5855,-2 1.3105,-2 z M 3803,3884 c -0.052,0.052 0.2511,0.4569 0.873,1.25 0.7549,0.9625 1.5424,1.75 1.75,1.75 0.2077,0 0.377,-0.1693 0.377,-0.377 0,-0.2076 -0.7875,-0.9951 -1.75,-1.75 -0.7931,-0.6219 -1.1984,-0.9246 -1.25,-0.873 z m -41.5,0.5 3.4453,3.75 c 1.8954,2.0625 3.5829,3.75 3.75,3.75 0.1671,0 0.3047,-0.1376 0.3047,-0.3047 0,-0.1671 -1.6875,-1.8546 -3.75,-3.75 z m -206.5625,0.5 c -0.275,0 -3.1719,2.7 -6.4375,6 -3.2656,3.3 -5.7125,6 -5.4375,6 0.275,0 3.1719,-2.7 6.4375,-6 3.2656,-3.3 5.7125,-6 5.4375,-6 z m 525.9551,0 c -0.275,0 -2.0268,1.575 -3.8926,3.5 -1.8658,1.925 -3.1676,3.5 -2.8926,3.5 0.275,0 2.0268,-1.575 3.8926,-3.5 1.8658,-1.925 3.1676,-3.5 2.8926,-3.5 z m -45.0449,1 c -0.275,0 -1.556,1.125 -2.8477,2.5 -1.2917,1.375 -2.1227,2.5 -1.8477,2.5 0.275,0 1.556,-1.125 2.8477,-2.5 1.2917,-1.375 2.1227,-2.5 1.8477,-2.5 z M 3807,3889 c -0.052,0.052 0.2511,0.4569 0.873,1.25 0.7549,0.9625 1.5424,1.75 1.75,1.75 0.2077,0 0.377,-0.1693 0.377,-0.377 0,-0.2076 -0.7875,-0.9951 -1.75,-1.75 -0.7931,-0.6219 -1.1984,-0.9246 -1.25,-0.873 z m -221.0332,3 c -0.275,0 -5.6597,5.175 -11.9668,11.5 -6.3071,6.325 -11.2418,11.5 -10.9668,11.5 0.275,0 5.6597,-5.175 11.9668,-11.5 6.3071,-6.325 11.2418,-11.5 10.9668,-11.5 z M 3811,3894 c -0.052,0.052 0.2511,0.4569 0.873,1.25 0.7549,0.9625 1.5424,1.75 1.75,1.75 0.2077,0 0.377,-0.1693 0.377,-0.377 0,-0.2076 -0.7875,-0.9951 -1.75,-1.75 -0.793,-0.6219 -1.1984,-0.9246 -1.25,-0.873 z m 216.8477,1 c -0.275,0 -1.556,1.125 -2.8477,2.5 -1.2917,1.375 -2.1227,2.5 -1.8477,2.5 0.275,0 1.556,-1.125 2.8477,-2.5 1.2917,-1.375 2.1227,-2.5 1.8477,-2.5 z m 41.8613,1 c -0.1605,0 -2.298,2.1375 -4.75,4.75 l -4.459,4.75 4.75,-4.459 c 2.6125,-2.452 4.75,-4.5895 4.75,-4.75 0,-0.1605 -0.1305,-0.291 -0.291,-0.291 z M 3815,3899 c -0.052,0.052 0.2511,0.4569 0.873,1.25 0.7549,0.9625 1.5424,1.75 1.75,1.75 0.2077,0 0.377,-0.1693 0.377,-0.377 0,-0.2076 -0.7875,-0.9951 -1.75,-1.75 -0.793,-0.6219 -1.1984,-0.9246 -1.25,-0.873 z m -276.1895,3 c -0.275,0 -1.315,0.9 -2.3105,2 -0.9955,1.1 -1.5855,2 -1.3105,2 0.275,0 1.315,-0.9 2.3105,-2 0.9955,-1.1 1.5855,-2 1.3105,-2 z m 481.0372,2 c -0.275,0 -1.556,1.125 -2.8477,2.5 -1.2917,1.375 -2.1227,2.5 -1.8477,2.5 0.275,0 1.556,-1.125 2.8477,-2.5 1.2917,-1.375 2.1227,-2.5 1.8477,-2.5 z M 3820,3905 c -0.052,0.052 0.2511,0.4569 0.873,1.25 0.7549,0.9625 1.5424,1.75 1.75,1.75 0.2077,0 0.377,-0.1693 0.377,-0.377 0,-0.2076 -0.7875,-0.9951 -1.75,-1.75 -0.7931,-0.6219 -1.1984,-0.9246 -1.25,-0.873 z m 526.5,0.5 3.9531,4.25 c 2.1742,2.3375 4.0867,4.25 4.25,4.25 0.1634,0 0.2969,-0.1335 0.2969,-0.2969 0,-0.1633 -1.9125,-2.0758 -4.25,-4.25 z M 3533,3909 c -0.052,-0.052 -0.4569,0.2511 -1.25,0.873 -0.9625,0.7549 -1.75,1.5424 -1.75,1.75 0,0.2077 0.1693,0.377 0.377,0.377 0.2076,0 0.9951,-0.7875 1.75,-1.75 0.6219,-0.793 0.9246,-1.1984 0.873,-1.25 z m 758.5,0.5 4.9629,5.25 c 2.7293,2.8875 5.0918,5.25 5.25,5.25 0.1582,0 0.2871,-0.1289 0.2871,-0.2871 0,-0.1582 -2.3625,-2.5207 -5.25,-5.25 z m -278.6895,2.5 c -0.275,0 -1.315,0.9 -2.3105,2 -0.9955,1.1 -1.5855,2 -1.3105,2 0.275,0 1.315,-0.9 2.3105,-2 0.9955,-1.1 1.5855,-2 1.3105,-2 z m 40.0957,2 c -0.2748,0 -2.258,1.8 -4.4062,4 -2.1482,2.2 -3.6817,4 -3.4062,4 0.2748,0 2.258,-1.8 4.4062,-4 2.1482,-2.2 3.6817,-4 3.4062,-4 z M 3528,3915 c -0.052,-0.052 -0.4569,0.2511 -1.25,0.873 -0.9625,0.7549 -1.75,1.5424 -1.75,1.75 0,0.2077 0.1693,0.377 0.377,0.377 0.2076,0 0.9951,-0.7875 1.75,-1.75 0.6219,-0.793 0.9246,-1.1984 0.873,-1.25 z m 301,1 c -0.052,0.052 0.2511,0.4569 0.873,1.25 0.7549,0.9625 1.5424,1.75 1.75,1.75 0.2077,0 0.377,-0.1693 0.377,-0.377 0,-0.2076 -0.7875,-0.9951 -1.75,-1.75 -0.793,-0.6219 -1.1984,-0.9246 -1.25,-0.873 z m 531.5,2.5 2.4238,2.75 c 1.3334,1.5125 2.5709,2.75 2.75,2.75 0.1791,0 0.3262,-0.1471 0.3262,-0.3262 0,-0.1791 -1.2375,-1.4166 -2.75,-2.75 z m -354.6895,1.5 c -0.275,0 -1.315,0.9 -2.3105,2 -0.9955,1.1 -1.5855,2 -1.3105,2 0.275,0 1.315,-0.9 2.3105,-2 0.9955,-1.1 1.5855,-2 1.3105,-2 z M 3523,3921 c -0.052,-0.052 -0.4569,0.2511 -1.25,0.873 -0.9625,0.7549 -1.75,1.5424 -1.75,1.75 0,0.2077 0.1693,0.377 0.377,0.377 0.2076,0 0.9951,-0.7875 1.75,-1.75 0.6219,-0.793 0.9246,-1.1984 0.873,-1.25 z m 269,1 c -0.052,0.052 0.2511,0.4569 0.873,1.25 0.7549,0.9625 1.5424,1.75 1.75,1.75 0.2077,0 0.377,-0.1693 0.377,-0.377 0,-0.2076 -0.7875,-0.9951 -1.75,-1.75 -0.793,-0.6219 -1.1984,-0.9246 -1.25,-0.873 z m -236.1523,1 c -0.275,0 -1.556,1.125 -2.8477,2.5 -1.2917,1.375 -2.1227,2.5 -1.8477,2.5 0.275,0 1.556,-1.125 2.8477,-2.5 1.2917,-1.375 2.1227,-2.5 1.8477,-2.5 z m 749.6523,1.5 2.4238,2.75 c 1.3334,1.5125 2.5709,2.75 2.75,2.75 0.1791,0 0.3262,-0.1471 0.3262,-0.3262 0,-0.1791 -1.2375,-1.4166 -2.75,-2.75 z m 63,1 1.9043,2.25 c 1.0477,1.2375 2.0602,2.25 2.25,2.25 0.1897,0 0.3457,-0.156 0.3457,-0.3457 0,-0.1898 -1.0125,-1.2023 -2.25,-2.25 z M 3519,3926 c -0.052,-0.052 -0.4569,0.2511 -1.25,0.873 -0.9625,0.7549 -1.75,1.5424 -1.75,1.75 0,0.2077 0.1693,0.377 0.377,0.377 0.2076,0 0.9951,-0.7875 1.75,-1.75 0.6219,-0.793 0.9246,-1.1984 0.873,-1.25 z m 277,1 c -0.052,0.052 0.2511,0.4569 0.873,1.25 0.7549,0.9625 1.5424,1.75 1.75,1.75 0.2077,0 0.377,-0.1693 0.377,-0.377 0,-0.2076 -0.7875,-0.9951 -1.75,-1.75 -0.793,-0.6219 -1.1984,-0.9246 -1.25,-0.873 z m 201.7324,2 c -0.1473,0 -4.9848,4.8375 -10.75,10.75 l -10.4824,10.75 10.75,-10.4824 c 5.9125,-5.7652 10.75,-10.6027 10.75,-10.75 0,-0.1474 -0.1202,-0.2676 -0.2676,-0.2676 z m 39.1914,2 c -0.275,0 -2.7152,2.25 -5.4238,5 -2.7086,2.75 -4.6988,5 -4.4238,5 0.275,0 2.7152,-2.25 5.4238,-5 2.7086,-2.75 4.6988,-5 4.4238,-5 z M 3800,3932 c -0.052,0.052 0.2511,0.4569 0.873,1.25 0.7549,0.9625 1.5424,1.75 1.75,1.75 0.2077,0 0.377,-0.1693 0.377,-0.377 0,-0.2076 -0.7875,-0.9951 -1.75,-1.75 -0.793,-0.6219 -1.1984,-0.9246 -1.25,-0.873 z m 512.5,0.5 3.9531,4.25 c 2.1742,2.3375 4.0867,4.25 4.25,4.25 0.1634,0 0.2969,-0.1335 0.2969,-0.2969 0,-0.1633 -1.9125,-2.0758 -4.25,-4.25 z m -766.6895,1.5 c -0.275,0 -1.315,0.9 -2.3105,2 -0.9955,1.1 -1.5855,2 -1.3105,2 0.275,0 1.315,-0.9 2.3105,-2 0.9955,-1.1 1.5855,-2 1.3105,-2 z m -7,8 c -0.275,0 -1.315,0.9 -2.3105,2 -0.9955,1.1 -1.5855,2 -1.3105,2 0.275,0 1.315,-0.9 2.3105,-2 0.9955,-1.1 1.5855,-2 1.3105,-2 z m 784.6895,0.5 1.9043,2.25 c 1.0477,1.2375 2.0602,2.25 2.25,2.25 0.1897,0 0.3457,-0.156 0.3457,-0.3457 0,-0.1898 -1.0125,-1.2023 -2.25,-2.25 z m -472.416,1.5 c -0.275,0 1.487,2.025 3.916,4.5 2.429,2.475 4.641,4.5 4.916,4.5 0.275,0 -1.487,-2.025 -3.916,-4.5 -2.429,-2.475 -4.641,-4.5 -4.916,-4.5 z m 478.916,4 c -0.052,0.052 0.2511,0.4569 0.873,1.25 0.7549,0.9625 1.5424,1.75 1.75,1.75 0.2077,0 0.377,-0.1693 0.377,-0.377 0,-0.2076 -0.7875,-0.9951 -1.75,-1.75 -0.793,-0.6219 -1.1984,-0.9246 -1.25,-0.873 z m -828.9102,1.5918 c -0.2258,0.2178 0.4057,1.2989 1.4043,2.4023 0.9985,1.1033 1.9916,2.0059 2.2071,2.0059 0.2154,0 -0.4161,-1.0811 -1.4043,-2.4023 -0.9882,-1.3211 -1.9813,-2.2237 -2.2071,-2.0059 z M 3532,3950 c -0.052,-0.052 -0.4569,0.2511 -1.25,0.873 -0.9625,0.7549 -1.75,1.5424 -1.75,1.75 0,0.2077 0.1693,0.377 0.377,0.377 0.2076,0 0.9951,-0.7875 1.75,-1.75 0.6219,-0.793 0.9246,-1.1984 0.873,-1.25 z m 284,2 c -0.052,0.052 0.2511,0.4569 0.873,1.25 0.7549,0.9625 1.5424,1.75 1.75,1.75 0.2077,0 0.377,-0.1693 0.377,-0.377 0,-0.2076 -0.7875,-0.9951 -1.75,-1.75 -0.793,-0.6219 -1.1984,-0.9246 -1.25,-0.873 z m 156.8105,1 c -0.275,0 -1.315,0.9 -2.3105,2 -0.9955,1.1 -1.5855,2 -1.3105,2 0.275,0 1.315,-0.9 2.3105,-2 0.9955,-1.1 1.5855,-2 1.3105,-2 z M 4340,3956 c -0.052,0.052 0.2511,0.4569 0.873,1.25 0.7549,0.9625 1.5424,1.75 1.75,1.75 0.2077,0 0.377,-0.1693 0.377,-0.377 0,-0.2076 -0.7875,-0.9951 -1.75,-1.75 -0.793,-0.6219 -1.1984,-0.9246 -1.25,-0.873 z m -814,1 c -0.052,-0.052 -0.4569,0.2511 -1.25,0.873 -0.9625,0.7549 -1.75,1.5424 -1.75,1.75 0,0.2077 0.1693,0.377 0.377,0.377 0.2076,0 0.9951,-0.7875 1.75,-1.75 0.6219,-0.793 0.9246,-1.1984 0.873,-1.25 z m 478.8105,6 c -0.275,0 -1.315,0.9 -2.3105,2 -0.9955,1.1 -1.5855,2 -1.3105,2 0.275,0 1.315,-0.9 2.3105,-2 0.9955,-1.1 1.5855,-2 1.3105,-2 z M 3825,3964 c -0.052,0.052 0.2511,0.4569 0.873,1.25 0.7549,0.9625 1.5424,1.75 1.75,1.75 0.2077,0 0.377,-0.1693 0.377,-0.377 0,-0.2076 -0.7875,-0.9951 -1.75,-1.75 -0.7931,-0.6219 -1.1984,-0.9246 -1.25,-0.873 z m 173,5 c -0.052,-0.052 -0.4569,0.2511 -1.25,0.873 -0.9625,0.7549 -1.75,1.5424 -1.75,1.75 0,0.2077 0.1693,0.377 0.377,0.377 0.2076,0 0.9951,-0.7875 1.75,-1.75 0.6219,-0.793 0.9246,-1.1984 0.873,-1.25 z m -168.5,0.5 4.9629,5.25 c 2.7293,2.8875 5.0918,5.25 5.25,5.25 0.1582,0 0.2871,-0.1289 0.2871,-0.2871 0,-0.1582 -2.3625,-2.5207 -5.25,-5.25 z m 95.3125,5.8164 c -0.7977,0.3192 -0.5615,0.5575 0.6035,0.6055 1.0541,0.043 1.6448,-0.1931 1.3125,-0.5254 -0.3323,-0.3324 -1.1941,-0.3696 -1.916,-0.08 z m 564.6758,0.1582 c -0.1675,-0.07 -0.4908,-0.026 -0.9356,0.1445 -0.8535,0.3276 -1.5527,0.7721 -1.5527,0.9883 0,0.2161 0.4238,0.3926 0.9414,0.3926 0.5175,0 1.2148,-0.4446 1.5508,-0.9883 0.1752,-0.2834 0.1636,-0.4671 0,-0.5371 z m -574.6758,0.8418 c -0.7977,0.3192 -0.5615,0.5575 0.6035,0.6055 1.0541,0.043 1.6448,-0.1931 1.3125,-0.5254 -0.3323,-0.3324 -1.1941,-0.3696 -1.916,-0.08 z m 63.1875,7.1133 c 0,-0.275 -0.9,-0.018 -2,0.5703 -1.1,0.5887 -2,1.2953 -2,1.5703 0,0.275 0.9,0.018 2,-0.5703 1.1,-0.5887 2,-1.2953 2,-1.5703 z m 482.8125,2.8867 c -0.7977,0.3192 -0.5615,0.5575 0.6035,0.6055 1.0541,0.043 1.6448,-0.1931 1.3125,-0.5254 -0.3323,-0.3324 -1.1941,-0.3696 -1.916,-0.08 z m -5,1 c -0.7977,0.3192 -0.5615,0.5575 0.6035,0.6055 1.0541,0.043 1.6448,-0.1931 1.3125,-0.5254 -0.3323,-0.3324 -1.1941,-0.3696 -1.916,-0.08 z m -6.543,0.9902 c -0.9729,0.2536 -0.4195,0.4781 1.2305,0.4981 1.65,0.02 2.4466,-0.1871 1.7695,-0.4609 -0.677,-0.274 -2.027,-0.2919 -3,-0.037 z m -8.0195,1.0039 c -0.9625,0.2515 -0.175,0.4571 1.75,0.4571 1.925,0 2.7125,-0.2056 1.75,-0.4571 -0.9625,-0.2516 -2.5375,-0.2516 -3.5,0 z m -48.4375,0.01 c -0.7977,0.3192 -0.5615,0.5575 0.6035,0.6055 1.0541,0.043 1.6448,-0.1931 1.3125,-0.5254 -0.3323,-0.3324 -1.1941,-0.3696 -1.916,-0.08 z m 38.9492,0.9766 c -1.244,0.2392 -0.4617,0.4441 1.7383,0.4551 2.1997,0.011 3.2177,-0.1853 2.2617,-0.4356 -0.9561,-0.2501 -2.7561,-0.2567 -4,-0.02 z m -33.4922,0.014 c -0.9729,0.2536 -0.4195,0.4781 1.2305,0.4981 1.65,0.02 2.4466,-0.187 1.7695,-0.4609 -0.677,-0.2739 -2.027,-0.2919 -3,-0.037 z m -470.457,12.0059 c -0.7977,0.3192 -0.5615,0.5575 0.6035,0.6055 1.0541,0.043 1.6448,-0.1931 1.3125,-0.5254 -0.3323,-0.3324 -1.1941,-0.3696 -1.916,-0.08 z m -44.0625,1.0215 c -0.6875,0.2774 -0.125,0.5039 1.25,0.5039 1.375,0 1.9375,-0.2265 1.25,-0.5039 -0.6875,-0.2774 -1.8125,-0.2774 -2.5,0 z m 37,0 c -0.6875,0.2774 -0.125,0.5039 1.25,0.5039 1.375,0 1.9375,-0.2265 1.25,-0.5039 -0.6875,-0.2774 -1.8125,-0.2774 -2.5,0 z m -25,0.9219 c -3.4375,0.1953 -0.625,0.3554 6.25,0.3554 6.875,0 9.6875,-0.1601 6.25,-0.3554 -3.4375,-0.1953 -9.0625,-0.1953 -12.5,0 z m 313.0273,9.9824 v 0 c -2.352,0.2112 -0.6773,0.3907 3.7227,0.3906 4.4,0 6.3253,-0.1679 4.2773,-0.3828 -2.0479,-0.2183 -5.6479,-0.2211 -8,-0.012 z m -14.0273,1.0957 c -0.6875,0.2774 -0.125,0.5039 1.25,0.5039 1.375,0 1.9375,-0.2265 1.25,-0.5039 -0.6875,-0.2774 -1.8125,-0.2774 -2.5,0 z m -491,6.918 c -5.0875,0.1815 -0.925,0.3281 9.25,0.3281 10.175,0 14.3375,-0.1466 9.25,-0.3281 -5.0875,-0.1815 -13.4125,-0.1815 -18.5,0 z m 33.5195,0.051 v 0 c 0,-5e-4 0,5e-4 0.01,0 0,0 -0.01,-8e-4 -0.01,0 z m 0.01,0 c -0.9543,0.2521 -0.4177,0.4762 1.2246,0.4961 1.65,0.02 2.4466,-0.187 1.7695,-0.4609 -0.6756,-0.2735 -2.0215,-0.2883 -2.9941,-0.035 z m -51.5254,1.0293 c -0.6875,0.2774 -0.125,0.5039 1.25,0.5039 1.375,0 1.9375,-0.2265 1.25,-0.5039 -0.6875,-0.2774 -1.8125,-0.2774 -2.5,0 z m -5.9375,0.9785 c -0.7977,0.3192 -0.5615,0.5575 0.6035,0.6055 1.0541,0.043 1.6448,-0.1931 1.3125,-0.5254 -0.3323,-0.3324 -1.1941,-0.3676 -1.916,-0.078 z m 78.6875,6.1836 3.9531,4.25 c 2.1742,2.3375 4.0867,4.25 4.25,4.25 0.1634,0 0.2969,-0.1335 0.2969,-0.2969 0,-0.1633 -1.9125,-2.0758 -4.25,-4.25 z m 507.5,7.5 c -0.052,0.052 0.2511,0.4569 0.873,1.25 0.7549,0.9625 1.5424,1.75 1.75,1.75 0.2077,0 0.377,-0.1693 0.377,-0.377 0,-0.2076 -0.7875,-0.9951 -1.75,-1.75 -0.793,-0.6219 -1.1984,-0.9246 -1.25,-0.873 z m 404.8125,10.3164 c -0.7977,0.3192 -0.5615,0.5575 0.6035,0.6055 1.0541,0.043 1.6448,-0.1931 1.3125,-0.5254 -0.3323,-0.3324 -1.1941,-0.3676 -1.916,-0.078 z m -5.3242,2.1602 c -0.1675,-0.07 -0.4908,-0.028 -0.9356,0.1425 -0.8535,0.3276 -1.5527,0.7721 -1.5527,0.9883 0,0.2161 0.4238,0.3926 0.9414,0.3926 0.5175,0 1.2148,-0.4446 1.5508,-0.9883 0.1752,-0.2834 0.1636,-0.4652 0,-0.5351 z m -477.6758,1.8398 c -0.7977,0.3192 -0.5615,0.5575 0.6035,0.6055 1.0541,0.043 1.6448,-0.1931 1.3125,-0.5254 -0.3323,-0.3324 -1.1941,-0.3676 -1.916,-0.078 z m -494.0449,4.9551 c -1.7973,0.2225 -0.5676,0.404 2.7324,0.414 3.2999,0.01 4.7703,-0.1759 3.2676,-0.4043 -1.5026,-0.228 -4.2026,-0.2306 -6,-0.01 z m 23.0449,0.041 c -0.7977,0.3192 -0.5615,0.5575 0.6035,0.6055 1.0541,0.043 1.6448,-0.1931 1.3125,-0.5254 -0.3323,-0.3324 -1.1941,-0.3676 -1.916,-0.078 z M 4292,4058 c -0.052,0.052 0.2511,0.4569 0.873,1.25 0.7549,0.9625 1.5424,1.75 1.75,1.75 0.2077,0 0.377,-0.1693 0.377,-0.377 0,-0.2076 -0.7875,-0.9951 -1.75,-1.75 -0.793,-0.6219 -1.1984,-0.9246 -1.25,-0.873 z m -611.25,0.3379 c -0.6875,0.2774 -0.125,0.5039 1.25,0.5039 1.375,0 1.9375,-0.2265 1.25,-0.5039 -0.6875,-0.2774 -1.8125,-0.2774 -2.5,0 z m 970.25,0.092 c 0,-0.275 -0.9,-0.018 -2,0.5703 -1.1,0.5887 -2,1.2953 -2,1.5703 0,0.275 0.9,0.018 2,-0.5703 1.1,-0.5887 2,-1.2953 2,-1.5703 z M 4102,4059 c -0.052,-0.052 -0.4569,0.2511 -1.25,0.873 -0.9625,0.7549 -1.75,1.5424 -1.75,1.75 0,0.2077 0.1693,0.377 0.377,0.377 0.2076,0 0.9951,-0.7875 1.75,-1.75 0.6219,-0.793 0.9246,-1.1984 0.873,-1.25 z m -368,5 c -0.052,0.052 0.2511,0.4569 0.873,1.25 0.7549,0.9625 1.5424,1.75 1.75,1.75 0.2077,0 0.377,-0.1693 0.377,-0.377 0,-0.2076 -0.7875,-0.9951 -1.75,-1.75 -0.793,-0.6219 -1.1984,-0.9246 -1.25,-0.873 z m 361.9629,0 c -0.275,0 -4.9835,4.5 -10.4629,10 -5.4794,5.5 -9.7379,10 -9.4629,10 0.275,0 4.9835,-4.5 10.4629,-10 5.4794,-5.5 9.7379,-10 9.4629,-10 z M 3738,4068 c -0.052,0.052 0.2511,0.4569 0.873,1.25 0.7549,0.9625 1.5424,1.75 1.75,1.75 0.2077,0 0.377,-0.1693 0.377,-0.377 0,-0.2076 -0.7875,-0.9951 -1.75,-1.75 -0.793,-0.6219 -1.1984,-0.9246 -1.25,-0.873 z m 568,1 c -0.052,0.052 0.2511,0.4569 0.873,1.25 0.7549,0.9625 1.5424,1.75 1.75,1.75 0.2077,0 0.377,-0.1693 0.377,-0.377 0,-0.2076 -0.7875,-0.9951 -1.75,-1.75 -0.793,-0.6219 -1.1984,-0.9246 -1.25,-0.873 z m -68,2 c -0.052,0.052 0.2511,0.4569 0.873,1.25 0.7549,0.9625 1.5424,1.75 1.75,1.75 0.2077,0 0.377,-0.1693 0.377,-0.377 0,-0.2076 -0.7875,-0.9951 -1.75,-1.75 -0.793,-0.6219 -1.1984,-0.9246 -1.25,-0.873 z m 448.2793,0.3789 c -0.1055,0.105 -0.1772,0.4546 -0.2012,1.0371 -0.043,1.0541 0.1931,1.6448 0.5254,1.3125 0.3324,-0.3323 0.3696,-1.1941 0.08,-1.916 -0.1596,-0.3989 -0.2988,-0.5386 -0.4043,-0.4336 z M 4311,4073 c -0.052,0.052 0.2511,0.4569 0.873,1.25 0.7549,0.9625 1.5424,1.75 1.75,1.75 0.2077,0 0.377,-0.1693 0.377,-0.377 0,-0.2076 -0.7875,-0.9951 -1.75,-1.75 -0.793,-0.6219 -1.1984,-0.9246 -1.25,-0.873 z m 5,4 c -0.052,0.052 0.2511,0.4569 0.873,1.25 0.7549,0.9625 1.5424,1.75 1.75,1.75 0.2077,0 0.377,-0.1693 0.377,-0.377 0,-0.2076 -0.7875,-0.9951 -1.75,-1.75 -0.793,-0.6219 -1.1984,-0.9246 -1.25,-0.873 z m -184,3 c -0.052,-0.052 -0.4569,0.2511 -1.25,0.873 -0.9625,0.7549 -1.75,1.5424 -1.75,1.75 0,0.2077 0.1693,0.377 0.377,0.377 0.2076,0 0.9951,-0.7875 1.75,-1.75 0.6219,-0.793 0.9246,-1.1984 0.873,-1.25 z m 190,2 c -0.052,0.052 0.2511,0.4569 0.873,1.25 0.7549,0.9625 1.5424,1.75 1.75,1.75 0.2077,0 0.377,-0.1693 0.377,-0.377 0,-0.2076 -0.7875,-0.9951 -1.75,-1.75 -0.793,-0.6219 -1.1984,-0.9246 -1.25,-0.873 z m -764.1523,2 c -0.275,0 -1.556,1.125 -2.8477,2.5 -1.2917,1.375 -2.1227,2.5 -1.8477,2.5 0.275,0 1.556,-1.125 2.8477,-2.5 1.2917,-1.375 2.1227,-2.5 1.8477,-2.5 z M 4127,4084 c -0.052,-0.052 -0.4569,0.2511 -1.25,0.873 -0.9625,0.7549 -1.75,1.5424 -1.75,1.75 0,0.2077 0.1693,0.377 0.377,0.377 0.2076,0 0.9951,-0.7875 1.75,-1.75 0.6219,-0.793 0.9246,-1.1984 0.873,-1.25 z m 480,1 c -0.052,-0.052 -0.4569,0.2511 -1.25,0.873 -0.9625,0.7549 -1.75,1.5424 -1.75,1.75 0,0.2077 0.1693,0.377 0.377,0.377 0.2076,0 0.9951,-0.7875 1.75,-1.75 0.6219,-0.793 0.9246,-1.1984 0.873,-1.25 z m -280,1 c -0.052,0.052 0.2511,0.4569 0.873,1.25 0.7549,0.9625 1.5424,1.75 1.75,1.75 0.2077,0 0.377,-0.1693 0.377,-0.377 0,-0.2076 -0.7875,-0.9951 -1.75,-1.75 -0.793,-0.6219 -1.1984,-0.9246 -1.25,-0.873 z m -206,3 c -0.052,-0.052 -0.4569,0.2511 -1.25,0.873 -0.9625,0.7549 -1.75,1.5424 -1.75,1.75 0,0.2077 0.1693,0.377 0.377,0.377 0.2076,0 0.9951,-0.7875 1.75,-1.75 0.6219,-0.793 0.9246,-1.1984 0.873,-1.25 z m 140,0 c -0.052,0.052 0.2511,0.4569 0.873,1.25 0.7549,0.9625 1.5424,1.75 1.75,1.75 0.2077,0 0.377,-0.1693 0.377,-0.377 0,-0.2076 -0.7875,-0.9951 -1.75,-1.75 -0.793,-0.6219 -1.1984,-0.9246 -1.25,-0.873 z m -712.0938,3 c -0.2748,0 -2.258,1.8 -4.4062,4 -2.1482,2.2 -3.6817,4 -3.4062,4 0.2748,0 2.258,-1.8 4.4062,-4 2.1482,-2.2 3.6817,-4 3.4062,-4 z M 4115,4094 c -0.052,-0.052 -0.4569,0.2511 -1.25,0.873 -0.9625,0.7549 -1.75,1.5424 -1.75,1.75 0,0.2077 0.1693,0.377 0.377,0.377 0.2076,0 0.9951,-0.7875 1.75,-1.75 0.6219,-0.793 0.9246,-1.1984 0.873,-1.25 z m -6,5 c -0.052,-0.052 -0.4569,0.2511 -1.25,0.873 -0.9625,0.7549 -1.75,1.5424 -1.75,1.75 0,0.2077 0.1693,0.377 0.377,0.377 0.2076,0 0.9951,-0.7875 1.75,-1.75 0.6219,-0.793 0.9246,-1.1984 0.873,-1.25 z m 166,1 c -0.052,0.052 0.2511,0.4569 0.873,1.25 0.7549,0.9625 1.5424,1.75 1.75,1.75 0.2077,0 0.377,-0.1693 0.377,-0.377 0,-0.2076 -0.7875,-0.9951 -1.75,-1.75 -0.793,-0.6219 -1.1984,-0.9246 -1.25,-0.873 z m -691,4 c -0.052,-0.052 -0.4569,0.2511 -1.25,0.873 -0.9625,0.7549 -1.75,1.5424 -1.75,1.75 0,0.2077 0.1693,0.377 0.377,0.377 0.2076,0 0.9951,-0.7875 1.75,-1.75 0.6219,-0.793 0.9246,-1.1984 0.873,-1.25 z m 519,0 c -0.052,-0.052 -0.4569,0.2511 -1.25,0.873 -0.9625,0.7549 -1.75,1.5424 -1.75,1.75 0,0.2077 0.1693,0.377 0.377,0.377 0.2076,0 0.9951,-0.7875 1.75,-1.75 0.6219,-0.793 0.9246,-1.1984 0.873,-1.25 z m 252.0859,1.2598 c -0.04,0.06 0.4235,0.4388 1.3555,1.1855 1.0677,0.8554 2.0802,1.5547 2.25,1.5547 0.1699,0 0.3086,-0.2092 0.3086,-0.4648 0,-0.2557 -1.0125,-0.955 -2.25,-1.5547 -1.0803,-0.5235 -1.6239,-0.7811 -1.6641,-0.7207 z M 4098,4108 c -0.052,-0.052 -0.4569,0.2511 -1.25,0.873 -0.9625,0.7549 -1.75,1.5424 -1.75,1.75 0,0.2077 0.1693,0.377 0.377,0.377 0.2076,0 0.9951,-0.7875 1.75,-1.75 0.6219,-0.793 0.9246,-1.1984 0.873,-1.25 z m -520.1895,1 c -0.275,0 -1.315,0.9 -2.3105,2 -0.9955,1.1 -1.5855,2 -1.3105,2 0.275,0 1.315,-0.9 2.3105,-2 0.9955,-1.1 1.5855,-2 1.3105,-2 z m -46.9179,1 c -0.275,0 -2.0268,1.575 -3.8926,3.5 -1.8658,1.925 -3.1676,3.5 -2.8926,3.5 0.275,0 2.0268,-1.575 3.8926,-3.5 1.8658,-1.925 3.1676,-3.5 2.8926,-3.5 z M 4289,4111 c -0.052,0.052 0.2511,0.4569 0.873,1.25 0.7549,0.9625 1.5424,1.75 1.75,1.75 0.2077,0 0.377,-0.1693 0.377,-0.377 0,-0.2076 -0.7875,-0.9951 -1.75,-1.75 -0.793,-0.6219 -1.1984,-0.9246 -1.25,-0.873 z m -196,1 c -0.052,-0.052 -0.4569,0.2511 -1.25,0.873 -0.9625,0.7549 -1.75,1.5424 -1.75,1.75 0,0.2077 0.1693,0.377 0.377,0.377 0.2076,0 0.9951,-0.7875 1.75,-1.75 0.6219,-0.793 0.9246,-1.1984 0.873,-1.25 z m -523.1895,4 c -0.275,0 -1.315,0.9 -2.3105,2 -0.9955,1.1 -1.5855,2 -1.3105,2 0.275,0 1.315,-0.9 2.3105,-2 0.9955,-1.1 1.5855,-2 1.3105,-2 z M 3817,4122 c -0.052,0.052 0.2511,0.4569 0.873,1.25 0.7549,0.9625 1.5424,1.75 1.75,1.75 0.2077,0 0.377,-0.1693 0.377,-0.377 0,-0.2076 -0.7875,-0.9951 -1.75,-1.75 -0.793,-0.6219 -1.1984,-0.9246 -1.25,-0.873 z m -257.0391,3 c -0.275,0 -4.7576,4.275 -9.9609,9.5 -5.2033,5.225 -9.2359,9.5 -8.9609,9.5 0.275,0 4.7576,-4.275 9.9609,-9.5 5.2033,-5.225 9.2359,-9.5 8.9609,-9.5 z M 3828,4133 c -0.052,0.052 0.2511,0.4569 0.873,1.25 0.7549,0.9625 1.5424,1.75 1.75,1.75 0.2077,0 0.377,-0.1693 0.377,-0.377 0,-0.2076 -0.7875,-0.9951 -1.75,-1.75 -0.793,-0.6219 -1.1984,-0.9246 -1.25,-0.873 z m 676.8125,1.3164 c -0.7977,0.3192 -0.5615,0.5575 0.6035,0.6055 1.0541,0.043 1.6448,-0.1931 1.3125,-0.5254 -0.3323,-0.3324 -1.1941,-0.3696 -1.916,-0.08 z m -73,1 c -0.7977,0.3192 -0.5615,0.5575 0.6035,0.6055 1.0541,0.043 1.6448,-0.1931 1.3125,-0.5254 -0.3323,-0.3324 -1.1941,-0.3696 -1.916,-0.08 z m 67,0 c -0.7977,0.3192 -0.5615,0.5575 0.6035,0.6055 1.0541,0.043 1.6448,-0.1931 1.3125,-0.5254 -0.3323,-0.3324 -1.1941,-0.3696 -1.916,-0.08 z m -7.543,0.9902 c -0.9729,0.2536 -0.4195,0.4781 1.2305,0.4981 1.65,0.02 2.4466,-0.1876 1.7695,-0.4609 -0.677,-0.2741 -2.027,-0.2919 -3,-0.037 z m -49.5195,1.0313 c -0.6875,0.2774 -0.125,0.5039 1.25,0.5039 1.375,0 1.9375,-0.2265 1.25,-0.5039 -0.6875,-0.2774 -1.8125,-0.2774 -2.5,0 z m 41,0 c -0.6875,0.2774 -0.125,0.5039 1.25,0.5039 1.375,0 1.9375,-0.2265 1.25,-0.5039 -0.6875,-0.2774 -1.8125,-0.2774 -2.5,0 z m -33.5,0.9726 c -0.9625,0.2515 -0.175,0.4571 1.75,0.4571 1.925,0 2.7125,-0.2056 1.75,-0.4571 -0.9625,-0.2516 -2.5375,-0.2516 -3.5,0 z m 23,0 c -0.9625,0.2515 -0.175,0.4571 1.75,0.4571 1.925,0 2.7125,-0.2056 1.75,-0.4571 -0.9625,-0.2516 -2.5375,-0.2516 -3.5,0 z m -941.75,2.1895 2.4238,2.75 c 1.3334,1.5125 2.8722,2.75 3.418,2.75 0.5457,0 0.8033,-0.1125 0.5742,-0.25 -0.2292,-0.1375 -1.766,-1.375 -3.416,-2.75 z M 3788,4152 c -0.052,0.052 0.2511,0.4569 0.873,1.25 0.7549,0.9625 1.5424,1.75 1.75,1.75 0.2077,0 0.377,-0.1693 0.377,-0.377 0,-0.2076 -0.7875,-0.9951 -1.75,-1.75 -0.793,-0.6219 -1.1984,-0.9246 -1.25,-0.873 z m 100.8125,3.3164 c -0.7977,0.3192 -0.5615,0.5575 0.6035,0.6055 1.0541,0.043 1.6448,-0.1931 1.3125,-0.5254 -0.3323,-0.3324 -1.1941,-0.3696 -1.916,-0.08 z m 6.9375,1.0215 c -0.6875,0.2774 -0.125,0.5039 1.25,0.5039 1.375,0 1.9375,-0.2265 1.25,-0.5039 -0.6875,-0.2774 -1.8125,-0.2774 -2.5,0 z m -104.25,0.1621 1.9043,2.25 c 1.0477,1.2375 2.0602,2.25 2.25,2.25 0.1897,0 0.3457,-0.156 0.3457,-0.3457 0,-0.1898 -1.0125,-1.2023 -2.25,-2.25 z m 116.7695,0.8066 c -0.9729,0.2536 -0.4195,0.4781 1.2305,0.4981 1.65,0.02 2.4466,-0.1875 1.7695,-0.4609 -0.677,-0.2741 -2.027,-0.2919 -3,-0.037 z m 32.4805,0.031 c -0.6875,0.2774 -0.125,0.5039 1.25,0.5039 1.375,0 1.9375,-0.2265 1.25,-0.5039 -0.6875,-0.2774 -1.8125,-0.2774 -2.5,0 z m -16.4863,0.9453 c -1.52,0.2299 -0.5137,0.4216 2.2363,0.4316 2.7497,0.01 3.9937,-0.1806 2.7637,-0.4179 -1.2299,-0.2377 -3.4799,-0.2417 -5,-0.014 z m 463.5488,8.0332 c -0.7977,0.3192 -0.5615,0.5575 0.6035,0.6055 1.0541,0.043 1.6448,-0.1931 1.3125,-0.5254 -0.3323,-0.3324 -1.1941,-0.3696 -1.916,-0.08 z M 3804,4169 c -0.052,0.052 0.2511,0.4569 0.873,1.25 0.7549,0.9625 1.5424,1.75 1.75,1.75 0.2077,0 0.377,-0.1693 0.377,-0.377 0,-0.2076 -0.7875,-0.9951 -1.75,-1.75 -0.793,-0.6219 -1.1984,-0.9246 -1.25,-0.873 z m 603.8125,1.3164 c -0.7977,0.3192 -0.5615,0.5575 0.6035,0.6055 1.0541,0.043 1.6448,-0.1931 1.3125,-0.5254 -0.3323,-0.3324 -1.1941,-0.3696 -1.916,-0.08 z m 6,1 c -0.7977,0.3192 -0.5615,0.5575 0.6035,0.6055 1.0541,0.043 1.6448,-0.1931 1.3125,-0.5254 -0.3323,-0.3324 -1.1941,-0.3696 -1.916,-0.08 z m 12.9375,2.0215 c -0.6875,0.2774 -0.125,0.5039 1.25,0.5039 1.375,0 1.9375,-0.2265 1.25,-0.5039 -0.6875,-0.2774 -1.8125,-0.2774 -2.5,0 z m 8,1 c -0.6875,0.2774 -0.125,0.5039 1.25,0.5039 1.375,0 1.9375,-0.2265 1.25,-0.5039 -0.6875,-0.2774 -1.8125,-0.2774 -2.5,0 z m 8.5195,0.9687 c -0.9729,0.2536 -0.4195,0.4781 1.2305,0.4981 1.65,0.02 2.4466,-0.1871 1.7695,-0.4609 -0.677,-0.2741 -2.027,-0.2919 -3,-0.037 z m 13.0098,0.9336 v 0 c -2.6291,0.2067 -0.7293,0.3809 4.2207,0.3809 4.95,0 7.1002,-0.1653 4.7793,-0.375 -2.3209,-0.2142 -6.3709,-0.2148 -9,-0.01 z m 20.4824,0.053 c -1.244,0.2392 -0.4617,0.444 1.7383,0.455 2.1997,0.011 3.2177,-0.1852 2.2617,-0.4355 -0.9561,-0.2501 -2.7561,-0.2557 -4,-0.02 z m -626.9492,13.0195 c -0.7977,0.3192 -0.5615,0.5575 0.6035,0.6055 1.0541,0.043 1.6448,-0.1931 1.3125,-0.5254 -0.3323,-0.3324 -1.1941,-0.3696 -1.916,-0.08 z m 10,2 c -0.7977,0.3192 -0.5615,0.5575 0.6035,0.6055 1.0541,0.043 1.6448,-0.1931 1.3125,-0.5254 -0.3323,-0.3324 -1.1941,-0.3696 -1.916,-0.08 z m 91,0 c -0.7977,0.3192 -0.5615,0.5575 0.6035,0.6055 1.0541,0.043 1.6448,-0.1931 1.3125,-0.5254 -0.3323,-0.3324 -1.1941,-0.3696 -1.916,-0.08 z m -5,1 c -0.7977,0.3192 -0.5615,0.5575 0.6035,0.6055 1.0541,0.043 1.6448,-0.1931 1.3125,-0.5254 -0.3323,-0.3324 -1.1941,-0.3696 -1.916,-0.08 z m -81.0625,0.021 c -0.6875,0.2774 -0.125,0.5039 1.25,0.5039 1.375,0 1.9375,-0.2265 1.25,-0.5039 -0.6875,-0.2774 -1.8125,-0.2774 -2.5,0 z m 7.5195,0.9687 c -0.9729,0.2536 -0.4195,0.4781 1.2305,0.4981 1.65,0.02 2.4466,-0.1871 1.7695,-0.461 -0.677,-0.2741 -2.027,-0.2914 -3,-0.037 z m 66.4805,0.031 c -0.6875,0.2774 -0.125,0.5039 1.25,0.5039 1.375,0 1.9375,-0.2265 1.25,-0.5039 -0.6875,-0.2774 -1.8125,-0.2774 -2.5,0 z m -54.9824,0.9297 v 0.01 c -1.7973,0.2225 -0.5676,0.4041 2.7324,0.4141 3.2999,0.01 4.7703,-0.176 3.2676,-0.4043 -1.5026,-0.228 -4.2026,-0.2365 -6,-0.016 z m 41.4961,0.016 c -1.52,0.23 -0.5137,0.4216 2.2363,0.4316 2.7497,0.01 3.9937,-0.1806 2.7637,-0.4179 -1.2299,-0.2377 -3.4799,-0.2413 -5,-0.014 z m 280.4863,22.0566 c -0.6875,0.2774 -0.125,0.5059 1.25,0.5059 1.375,0 1.9375,-0.2285 1.25,-0.5059 -0.6875,-0.2774 -1.8125,-0.2774 -2.5,0 z m -566.498,11.9258 c -2.6125,0.206 -0.475,0.3731 4.75,0.3731 5.225,0 7.3625,-0.1671 4.75,-0.3731 -2.6125,-0.206 -6.8875,-0.206 -9.5,0 z m 28.5,0.074 c -0.6875,0.2774 -0.125,0.5039 1.25,0.5039 1.375,0 1.9375,-0.2265 1.25,-0.5039 -0.6875,-0.2774 -1.8125,-0.2774 -2.5,0 z m -50,1 c -0.6875,0.2774 -0.125,0.5039 1.25,0.5039 1.375,0 1.9375,-0.2265 1.25,-0.5039 -0.6875,-0.2774 -1.8125,-0.2774 -2.5,0 z m -9.9375,0.9786 c -0.7977,0.3192 -0.5615,0.5574 0.6035,0.6054 1.0541,0.043 1.6448,-0.1931 1.3125,-0.5254 -0.3323,-0.3324 -1.1941,-0.3694 -1.916,-0.08 z M 4133,4244 c -0.052,-0.052 -0.4569,0.2511 -1.25,0.873 -0.9625,0.7549 -1.75,1.5424 -1.75,1.75 0,0.2077 0.1693,0.377 0.377,0.377 0.2076,0 0.9951,-0.7875 1.75,-1.75 0.6219,-0.793 0.9246,-1.1984 0.873,-1.25 z m -425,1 c -0.052,0.052 0.2511,0.4569 0.873,1.25 0.7549,0.9625 1.5424,1.75 1.75,1.75 0.2077,0 0.377,-0.1693 0.377,-0.377 0,-0.2076 -0.7875,-0.9951 -1.75,-1.75 -0.793,-0.6219 -1.1984,-0.9246 -1.25,-0.873 z m 416,6 c -0.052,-0.052 -0.4569,0.2511 -1.25,0.873 -0.9625,0.7549 -1.75,1.5424 -1.75,1.75 0,0.2077 0.1693,0.377 0.377,0.377 0.2076,0 0.9951,-0.7875 1.75,-1.75 0.6219,-0.793 0.9246,-1.1984 0.873,-1.25 z m 91.7285,0.2695 c -2.0748,-0.2146 -5.2248,-0.2123 -7,0.01 -1.7752,0.2209 -0.079,0.3926 3.7715,0.3926 3.85,0 5.3033,-0.1839 3.2285,-0.4004 z m -19.9785,1.0684 c -0.6875,0.2774 -0.125,0.5039 1.25,0.5039 1.375,0 1.9375,-0.2265 1.25,-0.5039 -0.6875,-0.2774 -1.8125,-0.2774 -2.5,0 z m 29,0 c -0.6875,0.2774 -0.125,0.5039 1.25,0.5039 1.375,0 1.9375,-0.2265 1.25,-0.5039 -0.6875,-0.2774 -1.8125,-0.2774 -2.5,0 z M 3718,4253 c -0.052,0.052 0.2511,0.4569 0.873,1.25 0.7549,0.9625 1.5424,1.75 1.75,1.75 0.2077,0 0.377,-0.1693 0.377,-0.377 0,-0.2076 -0.7875,-0.9951 -1.75,-1.75 -0.793,-0.6219 -1.1984,-0.9246 -1.25,-0.873 z m 470.75,0.3379 c -0.6875,0.2774 -0.125,0.5039 1.25,0.5039 1.375,0 1.9375,-0.2265 1.25,-0.5039 -0.6875,-0.2774 -1.8125,-0.2774 -2.5,0 z m -3.9375,0.9785 c -0.7977,0.3192 -0.5615,0.5575 0.6035,0.6055 1.0541,0.043 1.6448,-0.1931 1.3125,-0.5254 -0.3323,-0.3324 -1.1941,-0.3696 -1.916,-0.08 z M 4348,4256 c -0.052,0.052 0.2511,0.4569 0.873,1.25 0.7549,0.9625 1.5424,1.75 1.75,1.75 0.2077,0 0.377,-0.1693 0.377,-0.377 0,-0.2076 -0.7875,-0.9951 -1.75,-1.75 -0.793,-0.6219 -1.1984,-0.9246 -1.25,-0.873 z m -625.5,0.5 1.9043,2.25 c 1.0477,1.2375 2.0602,2.25 2.25,2.25 0.1897,0 0.3457,-0.156 0.3457,-0.3457 0,-0.1898 -1.0125,-1.2023 -2.25,-2.25 z m 933.5,1.5 c -0.052,-0.052 -0.4569,0.2511 -1.25,0.873 -0.9625,0.7549 -1.75,1.5424 -1.75,1.75 0,0.2077 0.1693,0.377 0.377,0.377 0.2076,0 0.9951,-0.7875 1.75,-1.75 0.6219,-0.793 0.9246,-1.1984 0.873,-1.25 z m -1015.75,1.2715 c -2.0625,0.2158 -0.375,0.3926 3.75,0.3926 4.125,0 5.8125,-0.1768 3.75,-0.3926 -2.0625,-0.2157 -5.4375,-0.2157 -7.5,0 z m -30.5,0.01 c -1.7875,0.2219 -0.325,0.4024 3.25,0.4024 3.575,0 5.0375,-0.1806 3.25,-0.4024 -1.7875,-0.2218 -4.7125,-0.2217 -6.5,0 z m 45.0625,1.0391 c -0.7977,0.3192 -0.5615,0.5575 0.6035,0.6055 1.0541,0.043 1.6448,-0.1931 1.3125,-0.5254 -0.3323,-0.3324 -1.1941,-0.3696 -1.916,-0.08 z m -55.0625,0.021 c -0.6875,0.2774 -0.125,0.5039 1.25,0.5039 1.375,0 1.9375,-0.2265 1.25,-0.5039 -0.6875,-0.2774 -1.8125,-0.2774 -2.5,0 z m -6.9375,0.9746 c -0.7977,0.3192 -0.5615,0.5575 0.6035,0.6055 1.0541,0.043 1.6448,-0.1931 1.3125,-0.5254 -0.3323,-0.3324 -1.1941,-0.3696 -1.916,-0.08 z m -6,1.0039 c -0.7977,0.3192 -0.5615,0.5575 0.6035,0.6055 1.0541,0.043 1.6448,-0.1931 1.3125,-0.5254 -0.3323,-0.3324 -1.1941,-0.3696 -1.916,-0.08 z m 142.6875,0.1836 2.4238,2.75 c 1.3334,1.5125 2.5709,2.75 2.75,2.75 0.1791,0 0.3262,-0.1471 0.3262,-0.3262 0,-0.1791 -1.2375,-1.4166 -2.75,-2.75 z m 920.3105,0.5 c -0.275,0 -1.315,0.9 -2.3105,2 -0.9955,1.1 -1.5855,2 -1.3105,2 0.275,0 1.315,-0.9 2.3105,-2 0.9955,-1.1 1.5855,-2 1.3105,-2 z m -1066.998,0.3164 c -0.7977,0.3192 -0.5615,0.5575 0.6035,0.6055 1.0541,0.043 1.6448,-0.1931 1.3125,-0.5254 -0.3323,-0.3324 -1.1941,-0.3696 -1.916,-0.08 z M 4643.8105,4268 c -0.275,0 -1.315,0.9 -2.3105,2 -0.9955,1.1 -1.5855,2 -1.3105,2 0.275,0 1.315,-0.9 2.3105,-2 0.9955,-1.1 1.5855,-2 1.3105,-2 z m -904.3105,3.5 7.9766,8.25 c 4.3871,4.5375 8.0996,8.25 8.25,8.25 0.1504,0 0.2734,-0.123 0.2734,-0.2734 0,-0.1504 -3.7125,-3.8629 -8.25,-8.25 z m 898.5,1.5 c -0.052,-0.052 -0.4569,0.2511 -1.25,0.873 -0.9625,0.7549 -1.75,1.5424 -1.75,1.75 0,0.2077 0.1693,0.377 0.377,0.377 0.2076,0 0.9951,-0.7875 1.75,-1.75 0.6219,-0.793 0.9246,-1.1984 0.873,-1.25 z m -954,1 c -0.052,0.052 0.2511,0.4569 0.873,1.25 0.7549,0.9625 1.5424,1.75 1.75,1.75 0.2077,0 0.377,-0.1693 0.377,-0.377 0,-0.2076 -0.7875,-0.9951 -1.75,-1.75 -0.793,-0.6219 -1.1984,-0.9246 -1.25,-0.873 z m 949,3 c -0.052,-0.052 -0.4569,0.2511 -1.25,0.873 -0.9625,0.7549 -1.75,1.5424 -1.75,1.75 0,0.2077 0.1693,0.377 0.377,0.377 0.2076,0 0.9951,-0.7875 1.75,-1.75 0.6219,-0.793 0.9246,-1.1984 0.873,-1.25 z m -251.9141,1.2598 c -0.04,0.06 0.4235,0.4388 1.3555,1.1855 1.0677,0.8554 2.0802,1.5547 2.25,1.5547 0.1699,0 0.3086,-0.2092 0.3086,-0.4648 0,-0.2557 -1.0125,-0.955 -2.25,-1.5547 -1.0803,-0.5235 -1.6239,-0.7811 -1.6641,-0.7207 z M 3690.5,4279.5 l 1.9043,2.25 c 1.0477,1.2375 2.0602,2.25 2.25,2.25 0.1897,0 0.3457,-0.156 0.3457,-0.3457 0,-0.1898 -1.0125,-1.2023 -2.25,-2.25 z m 989.3477,5.5 c -0.275,0 -1.556,1.125 -2.8477,2.5 -1.2917,1.375 -2.1227,2.5 -1.8477,2.5 0.275,0 1.556,-1.125 2.8477,-2.5 1.2917,-1.375 2.1227,-2.5 1.8477,-2.5 z m -1198.5684,0.3789 c -0.1055,0.105 -0.1772,0.4546 -0.2012,1.0371 -0.043,1.0541 0.1931,1.6448 0.5254,1.3125 0.3324,-0.3323 0.3696,-1.1941 0.08,-1.916 -0.1596,-0.3988 -0.2988,-0.5386 -0.4043,-0.4336 z m 218.2207,2.1211 2.4238,2.75 c 1.3334,1.5125 2.5709,2.75 2.75,2.75 0.1791,0 0.3262,-0.1471 0.3262,-0.3262 0,-0.1791 -1.2375,-1.4166 -2.75,-2.75 z m -217.2207,2.8789 c -0.1055,0.105 -0.1772,0.4546 -0.2012,1.0371 -0.043,1.0541 0.1931,1.6448 0.5254,1.3125 0.3324,-0.3323 0.3696,-1.1941 0.08,-1.916 -0.1596,-0.3988 -0.2988,-0.5386 -0.4043,-0.4336 z M 4671.8105,4292 c -0.275,0 -1.315,0.9 -2.3105,2 -0.9955,1.1 -1.5855,2 -1.3105,2 0.275,0 1.315,-0.9 2.3105,-2 0.9955,-1.1 1.5855,-2 1.3105,-2 z M 4609,4295 c -0.052,-0.052 -0.4569,0.2511 -1.25,0.873 -0.9625,0.7549 -1.75,1.5424 -1.75,1.75 0,0.2077 0.1693,0.377 0.377,0.377 0.2076,0 0.9951,-0.7875 1.75,-1.75 0.6219,-0.793 0.9246,-1.1984 0.873,-1.25 z m -899.5,1.5 2.4238,2.75 c 1.3334,1.5125 2.5709,2.75 2.75,2.75 0.1791,0 0.3262,-0.1471 0.3262,-0.3262 0,-0.1791 -1.2375,-1.4166 -2.75,-2.75 z m 621,0 1.9043,2.25 c 1.0477,1.2375 2.0602,2.25 2.25,2.25 0.1897,0 0.3457,-0.156 0.3457,-0.3457 0,-0.1898 -1.0125,-1.2023 -2.25,-2.25 z m 334.5,1.5 c -0.052,-0.052 -0.4569,0.2511 -1.25,0.873 -0.9625,0.7549 -1.75,1.5424 -1.75,1.75 0,0.2077 0.1693,0.377 0.377,0.377 0.2076,0 0.9951,-0.7875 1.75,-1.75 0.6219,-0.793 0.9246,-1.1984 0.873,-1.25 z m -898,5 c -0.052,0.052 0.2511,0.4569 0.873,1.25 0.7549,0.9625 1.5424,1.75 1.75,1.75 0.2077,0 0.377,-0.1693 0.377,-0.377 0,-0.2076 -0.7875,-0.9951 -1.75,-1.75 -0.793,-0.6219 -1.1984,-0.9246 -1.25,-0.873 z m 670.5,2.0312 c -0.55,0 -0.325,0.4356 0.5,0.9688 0.825,0.5332 1.95,0.9687 2.5,0.9688 0.55,0 0.325,-0.4356 -0.5,-0.9688 -0.825,-0.5332 -1.95,-0.9687 -2.5,-0.9688 z m -718,0.4688 3.9531,4.25 c 2.1742,2.3375 4.0867,4.25 4.25,4.25 0.1634,0 0.2969,-0.1335 0.2969,-0.2969 0,-0.1633 -1.9125,-2.0758 -4.25,-4.25 z m 56.5,6.5 c -0.052,0.052 0.2511,0.4569 0.873,1.25 0.7549,0.9625 1.5424,1.75 1.75,1.75 0.2077,0 0.377,-0.1693 0.377,-0.377 0,-0.2076 -0.7875,-0.9951 -1.75,-1.75 -0.793,-0.6219 -1.1984,-0.9246 -1.25,-0.873 z m 249.8496,1.291 c -0.074,-0.048 -0.671,0.2277 -1.8496,0.7891 -1.375,0.6548 -2.6868,1.3542 -2.916,1.5547 -0.2291,0.2005 0.022,0.3652 0.5586,0.3652 0.5365,0 1.8483,-0.6993 2.916,-1.5547 0.9151,-0.7331 1.3649,-1.1061 1.291,-1.1543 z M 4644,4314 c -0.052,-0.052 -0.4569,0.2511 -1.25,0.873 -0.9625,0.7549 -1.75,1.5424 -1.75,1.75 0,0.2077 0.1693,0.377 0.377,0.377 0.2076,0 0.9951,-0.7875 1.75,-1.75 0.6219,-0.793 0.9246,-1.1984 0.873,-1.25 z m -171.1875,3.3164 c -0.7977,0.3192 -0.5615,0.5575 0.6035,0.6055 1.0541,0.043 1.6448,-0.1931 1.3125,-0.5254 -0.3323,-0.3324 -1.1941,-0.3696 -1.916,-0.08 z m 3.9375,1.0215 c -0.6875,0.2774 -0.125,0.5039 1.25,0.5039 1.375,0 1.9375,-0.2265 1.25,-0.5039 -0.6875,-0.2774 -1.8125,-0.2774 -2.5,0 z m 6,1 c -0.6875,0.2774 -0.125,0.5039 1.25,0.5039 1.375,0 1.9375,-0.2265 1.25,-0.5039 -0.6875,-0.2774 -1.8125,-0.2774 -2.5,0 z m 6.5,0.9726 c -0.9625,0.2515 -0.175,0.4571 1.75,0.4571 1.925,0 2.7125,-0.2056 1.75,-0.4571 -0.9625,-0.2516 -2.5375,-0.2516 -3.5,0 z m 11.0137,0.9727 c -1.52,0.2299 -0.5137,0.4216 2.2363,0.4316 2.7497,0.01 3.9937,-0.1806 2.7637,-0.4179 -1.2299,-0.2377 -3.4799,-0.2417 -5,-0.014 z m 61.5488,0.033 c -0.7977,0.3192 -0.5615,0.5575 0.6035,0.6055 1.0541,0.043 1.6448,-0.1931 1.3125,-0.5254 -0.3323,-0.3324 -1.1941,-0.3696 -1.916,-0.08 z m -34.5078,0.9375 c -5.9424,0.1771 -1.3547,0.3215 10.1953,0.3223 11.55,8e-4 16.4123,-0.1444 10.8047,-0.3223 -5.6077,-0.1764 -15.0577,-0.1771 -21,0 z m -720.4922,4.0625 c -0.7977,0.3192 -0.5615,0.5575 0.6035,0.6055 1.0541,0.043 1.6448,-0.1931 1.3125,-0.5254 -0.3323,-0.3324 -1.1941,-0.3696 -1.916,-0.08 z m 11,3 c -0.7977,0.3192 -0.5615,0.5575 0.6035,0.6055 1.0541,0.043 1.6448,-0.1931 1.3125,-0.5254 -0.3323,-0.3324 -1.1941,-0.3696 -1.916,-0.08 z m 9,2 c -0.7977,0.3192 -0.5615,0.5575 0.6035,0.6055 1.0541,0.043 1.6448,-0.1931 1.3125,-0.5254 -0.3323,-0.3324 -1.1941,-0.3696 -1.916,-0.08 z m 9,2 c -0.7977,0.3192 -0.5615,0.5575 0.6035,0.6055 1.0541,0.043 1.6448,-0.1931 1.3125,-0.5254 -0.3323,-0.3324 -1.1941,-0.3696 -1.916,-0.08 z m 6,1 c -0.7977,0.3192 -0.5615,0.5575 0.6035,0.6055 1.0541,0.043 1.6448,-0.1931 1.3125,-0.5254 -0.3323,-0.3324 -1.1941,-0.3696 -1.916,-0.08 z m 129,0 c -0.7977,0.3192 -0.5615,0.5575 0.6035,0.6055 1.0541,0.043 1.6448,-0.1931 1.3125,-0.5254 -0.3323,-0.3324 -1.1941,-0.3696 -1.916,-0.08 z m -124.0625,1.0215 c -0.6875,0.2774 -0.125,0.5039 1.25,0.5039 1.375,0 1.9375,-0.2265 1.25,-0.5039 -0.6875,-0.2774 -1.8125,-0.2774 -2.5,0 z m 117.0625,0.9785 c -0.7977,0.3192 -0.5615,0.5575 0.6035,0.6055 1.0541,0.043 1.6448,-0.1931 1.3125,-0.5254 -0.3323,-0.3324 -1.1941,-0.3696 -1.916,-0.08 z m -111.0625,0.022 c -0.6875,0.2774 -0.125,0.5039 1.25,0.5039 1.375,0 1.9375,-0.2265 1.25,-0.5039 -0.6875,-0.2774 -1.8125,-0.2774 -2.5,0 z m 6.5195,0.9687 c -0.9729,0.2536 -0.4195,0.4781 1.2305,0.4981 1.65,0.02 2.4466,-0.187 1.7695,-0.4609 -0.677,-0.2741 -2.027,-0.2919 -3,-0.037 z M 3745.5,4337.5 l 3.9531,4.25 c 2.1742,2.3375 4.0867,4.25 4.25,4.25 0.1634,0 0.2969,-0.1335 0.2969,-0.2969 0,-0.1633 -1.9125,-2.0758 -4.25,-4.25 z m 121.7695,0.8066 c -0.9729,0.2536 -0.4195,0.4781 1.2305,0.4981 1.65,0.02 2.4466,-0.1871 1.7695,-0.4609 -0.677,-0.2741 -2.027,-0.2919 -3,-0.037 z m 88.543,0.01 c -0.7977,0.3192 -0.5615,0.5575 0.6035,0.6055 1.0541,0.043 1.6448,-0.1931 1.3125,-0.5254 -0.3323,-0.3324 -1.1941,-0.3696 -1.916,-0.08 z m -78.5488,0.9668 c -1.52,0.2299 -0.5137,0.4216 2.2363,0.4316 2.7497,0.01 3.9937,-0.1806 2.7637,-0.4179 -1.2299,-0.2377 -3.4799,-0.2417 -5,-0.014 z m 73.5488,0.033 c -0.7977,0.3192 -0.5615,0.5575 0.6035,0.6055 1.0541,0.043 1.6448,-0.1931 1.3125,-0.5254 -0.3323,-0.3324 -1.1941,-0.3696 -1.916,-0.08 z m -59.0625,0.9609 c -1.7875,0.2218 -0.325,0.4024 3.25,0.4024 3.575,0 5.0375,-0.1806 3.25,-0.4024 -1.7875,-0.2218 -4.7125,-0.2218 -6.5,0 z m 52,0.061 c -0.6875,0.2774 -0.125,0.5039 1.25,0.5039 1.375,0 1.9375,-0.2265 1.25,-0.5039 -0.6875,-0.2774 -1.8125,-0.2774 -2.5,0 z m -28.4043,0.916 c -4.715,0.1822 -1.1423,0.334 8.1543,0.334 9.35,0 13.3093,-0.1491 8.7988,-0.334 -4.498,-0.1823 -12.1115,-0.1822 -16.9531,0 z m 547.4766,17.0566 c -0.7977,0.3192 -0.5615,0.5575 0.6035,0.6055 1.0541,0.043 1.6448,-0.1931 1.3125,-0.5254 -0.3323,-0.3324 -1.1941,-0.3693 -1.916,-0.08 z m 8.457,0.9903 c -0.9729,0.2536 -0.4195,0.478 1.2305,0.498 1.65,0.02 2.4466,-0.187 1.7695,-0.4609 -0.677,-0.274 -2.027,-0.2913 -3,-0.037 z m 13.498,0.9687 c -1.7973,0.2225 -0.5675,0.4041 2.7325,0.4141 3.2999,0.01 4.7702,-0.1761 3.2675,-0.4043 -1.5026,-0.228 -4.2026,-0.231 -6,-0.01 z m 63.502,0.031 c -0.9729,0.2536 -0.4195,0.478 1.2305,0.498 1.65,0.02 2.4466,-0.187 1.7695,-0.4609 -0.677,-0.274 -2.027,-0.2913 -3,-0.037 z m -29.9102,0.9512 c -3.5524,0.19 -0.9306,0.3496 6.1407,0.3496 7.15,0 10.2056,-0.1549 6.791,-0.3496 -3.3966,-0.1905 -9.194,-0.1899 -12.9317,0 z m -696.5468,8.0546 c -0.7977,0.3192 -0.5615,0.5575 0.6035,0.6055 1.0541,0.043 1.6448,-0.1931 1.3125,-0.5254 -0.3323,-0.3324 -1.1941,-0.3694 -1.916,-0.08 z m 6,1 c -0.7977,0.3192 -0.5615,0.5575 0.6035,0.6055 1.0541,0.043 1.6448,-0.1931 1.3125,-0.5254 -0.3323,-0.3324 -1.1941,-0.3694 -1.916,-0.08 z m 6,0.9961 c -0.7977,0.3192 -0.5615,0.5575 0.6035,0.6055 1.0541,0.043 1.6448,-0.1931 1.3125,-0.5254 -0.3323,-0.3324 -1.1941,-0.3696 -1.916,-0.08 z m 7.0019,1.002 c -0.7885,0.3176 -0.5597,0.5576 0.6016,0.6055 1.0541,0.043 1.6448,-0.1931 1.3125,-0.5254 -0.332,-0.3321 -1.1926,-0.3687 -1.9141,-0.08 z m 8,0.9961 c -0.7977,0.3192 -0.5615,0.5575 0.6035,0.6054 1.0541,0.043 1.6448,-0.193 1.3125,-0.5253 -0.3323,-0.3324 -1.1941,-0.3696 -1.916,-0.08 z m 7.9375,1.0215 c -0.6875,0.2774 -0.125,0.5019 1.25,0.5019 1.375,0 1.9375,-0.2245 1.25,-0.5019 -0.6875,-0.2774 -1.8125,-0.2774 -2.5,0 z m 10.5195,0.9726 c -0.9729,0.2536 -0.4195,0.4781 1.2305,0.4981 1.65,0.02 2.4467,-0.1871 1.7695,-0.461 -0.677,-0.274 -2.0269,-0.2913 -3,-0.037 z m 72.543,0.01 c -0.7977,0.3192 -0.5615,0.5575 0.6035,0.6055 1.0541,0.043 1.6448,-0.1931 1.3125,-0.5254 -0.3323,-0.3324 -1.1941,-0.3694 -1.916,-0.08 z m -57.0351,0.9258 v 0 c -2.3519,0.2112 -0.6774,0.3906 3.7226,0.3906 4.4,0 6.3254,-0.1679 4.2774,-0.3828 -2.0479,-0.2183 -5.6479,-0.2212 -8,-0.012 z m 45.9843,0.039 v 0 c -1.244,0.2392 -0.4617,0.4441 1.7383,0.4551 2.1997,0.011 3.2177,-0.1853 2.2617,-0.4356 -0.9561,-0.2501 -2.7561,-0.2617 -4,-0.021 z" />
      <path
         id="path103"
         style="fill:#ffffff;fill-opacity:1;stroke:#000000;stroke-width:1.18946;stroke-opacity:1"
         d="m 4183.8375,3658.3755 c -12.0205,0.084 -22.829,0.9075 -29.3948,2.241 -5.7112,1.1599 -16.4661,4.2064 -23.8995,6.7712 -7.4336,2.5645 -19.6264,7.0182 -27.095,9.8948 -7.4686,2.8764 -17.2457,6.9057 -21.7268,8.9563 -4.4813,2.0507 -13.0362,6.1751 -19.0111,9.1649 -5.9749,2.9897 -15.7519,8.3573 -21.7268,11.9272 -5.9749,3.57 -14.9164,9.7151 -19.8703,13.6569 -4.9539,3.9417 -11.9992,10.4834 -15.6565,14.537 -3.6573,4.0537 -20.9076,26.7117 -38.3339,50.3495 -17.4264,23.6378 -36.2903,48.1859 -41.9198,54.5515 -5.6293,6.3657 -12.6796,13.7827 -15.667,16.483 -2.9875,2.7003 -9.3426,7.2498 -14.1225,10.1086 -4.7799,2.8588 -12.846,6.7624 -17.9246,8.6764 -5.0787,1.9141 -12.656,3.9415 -16.8384,4.5049 -4.1824,0.5635 -10.9027,0.5426 -14.935,-0.04 -4.0323,-0.5857 -9.4097,-1.7281 -11.9498,-2.5411 -2.54,-0.813 -8.1195,-3.4123 -12.3975,-5.7741 -4.2782,-2.3617 -11.3666,-7.0642 -15.752,-10.4494 -4.3855,-3.3851 -10.5622,-8.7882 -13.7257,-12.0087 -3.1634,-3.2205 -10.7348,-13.5533 -16.8256,-22.9616 -6.0906,-9.4084 -15.6952,-23.8467 -21.3449,-32.0833 -5.6496,-8.2365 -15.7348,-23.1812 -22.41,-33.2102 -6.6751,-10.0289 -15.9893,-22.6669 -20.6999,-28.0848 -4.7107,-5.4178 -11.8795,-12.6589 -15.9303,-16.0937 -4.0507,-3.435 -12.4516,-9.3443 -18.6673,-13.1303 -6.2155,-3.7863 -17.5652,-9.4359 -25.2234,-12.5556 l -13.9253,-5.6728 -26.0722,0.096 c -19.8115,0.075 -28.5504,0.6411 -36.3925,2.3632 -5.6761,1.2465 -14.7199,3.7279 -20.0973,5.5121 -5.3774,1.7841 -15.6433,6.6267 -22.8132,10.7623 -7.1699,4.1358 -16.4581,10.0141 -20.6405,13.0642 -4.1825,3.0503 -12.4312,9.7042 -18.3298,14.7863 -5.8989,5.0822 -12.4068,11.1451 -14.4642,13.4714 -2.0574,2.3263 -4.0192,4.1868 -4.3581,4.136 -0.339,-0.051 -6.1994,6.2155 -13.0234,13.9265 -6.8239,7.7111 -18.7904,23.177 -26.592,34.37 -7.8018,11.1929 -17.7963,26.0915 -22.2107,33.106 -4.4143,7.0147 -8.0266,13.5691 -8.0266,14.5651 0,0.9958 2.0777,3.8198 4.617,6.2777 2.5392,2.4579 6.6713,6.0734 9.1808,8.0329 2.5096,1.9595 5.0386,3.3565 5.6206,3.1058 0.5818,-0.2506 6.5201,-8.0741 13.1974,-17.386 6.6772,-9.3119 19.943,-27.0483 29.4798,-39.4141 9.5369,-12.3659 23.2983,-28.9865 30.5809,-36.9341 7.2825,-7.9476 18.3254,-18.5246 24.5382,-23.506 6.2127,-4.9814 15.1194,-11.3621 19.7918,-14.1784 4.6722,-2.8164 12.6962,-6.5797 17.8313,-8.3637 5.1349,-1.7839 14.5604,-3.8374 20.9461,-4.5633 6.3858,-0.7261 15.2767,-1.3099 19.7578,-1.3099 5.0266,0.013 12.1009,1.2188 18.4679,3.1643 5.6762,1.7343 13.9866,4.7365 18.4678,6.672 4.4812,1.9356 12.1904,5.82 17.1311,8.6307 4.9406,2.8109 13.3972,8.6487 18.7925,12.9752 5.3952,4.3264 13.0913,11.7656 17.1035,16.5314 4.0123,4.7658 12.1561,16.285 18.0965,25.5969 5.9404,9.3118 17.4424,26.8937 25.5587,39.0707 8.1165,12.177 17.5649,26.6411 20.9971,32.1419 3.4323,5.5009 10.174,14.4362 14.9817,19.8583 4.8077,5.422 12.6989,12.7782 17.5343,16.3456 4.8353,3.5674 12.4926,8.3562 17.0187,10.6402 4.5261,2.284 10.6745,4.8811 13.662,5.7741 3.0267,0.9049 12.7041,1.6737 21.8563,1.735 10.3431,0.069 19.9966,-0.6351 26.0722,-1.9028 5.3063,-1.1072 14.75,-4.0581 20.9864,-6.5575 6.2364,-2.4994 16.2898,-7.4061 22.3401,-10.9048 6.0505,-3.4987 15.3693,-9.882 20.7084,-14.1861 5.3391,-4.3041 14.1067,-12.4521 19.4841,-18.1057 5.3774,-5.6537 25.2233,-29.8715 44.103,-53.8165 18.8798,-23.9452 36.9675,-46.2378 40.1947,-49.5405 3.2273,-3.3027 9.4407,-8.7722 13.8063,-12.1562 4.3655,-3.3839 15.1203,-9.5524 23.8995,-13.7054 8.7792,-4.1525 23.5393,-10.5868 32.8004,-14.3003 9.261,-3.7138 23.4379,-8.8181 31.504,-11.3423 11.6081,-3.6327 17.4967,-4.7325 28.2449,-5.273 12.0425,-0.6054 14.3709,-0.3593 20.581,2.1722 3.8516,1.5701 9.574,4.8995 12.7158,7.3997 3.1418,2.5001 9.2483,9.342 13.5686,15.2035 4.3204,5.8614 20.3809,25.8955 35.6924,44.5192 15.3114,18.6238 31.7215,39.0731 36.4646,45.4427 4.743,6.3696 12.7782,15.7838 17.8568,20.9216 5.0787,5.1379 14.3669,14.053 20.6405,19.8126 6.2736,5.7596 15.5619,13.9952 20.6406,18.2992 5.0786,4.3042 12.167,9.5969 15.7519,11.762 3.585,2.1652 9.2068,4.9641 12.4929,6.2192 4.4422,1.6967 10.4336,2.3712 23.3564,2.6276 9.5599,0.1898 21.2923,-0.1725 26.0723,-0.8038 4.7798,-0.6312 13.5227,-2.0887 19.4289,-3.2406 5.9064,-1.1516 14.9856,-4.0381 20.1758,-6.4126 5.1902,-2.3744 13.5574,-6.7993 18.5931,-9.8338 5.0357,-3.0346 16.7327,-11.1111 25.9938,-17.9482 9.261,-6.8369 25.6376,-19.2614 36.3924,-27.6089 10.7548,-8.3474 26.1537,-19.8615 34.2198,-25.5868 8.0661,-5.7254 19.5541,-13.6427 25.529,-17.5946 5.9749,-3.9519 17.8296,-11.7237 26.3439,-17.2715 8.5142,-5.5477 15.4764,-10.7677 15.4655,-11.5991 -0.011,-0.8313 -1.8528,-7.9576 -4.0971,-15.8369 -2.2443,-7.8792 -4.5002,-15.1264 -5.0137,-16.1039 -0.6543,-1.2449 -2.4741,-1.6005 -6.0767,-1.1854 -3.161,0.3641 -8.6522,2.7558 -14.252,6.2065 -5.0106,3.0877 -17.4213,11.1539 -27.5786,17.9253 -10.1573,6.7714 -21.6736,14.557 -25.5928,17.2995 -3.9189,2.7423 -16.6291,12.686 -28.2449,22.0969 -11.6156,9.4107 -27.2307,22.0123 -34.6993,28.0032 -7.4686,5.9909 -17.7346,13.051 -22.8132,15.6919 -5.0787,2.6411 -16.0763,7.6621 -24.4385,11.1565 -14.7414,6.1603 -15.5783,6.3541 -27.5405,6.3541 -10.8691,0 -13.5196,-0.4751 -22.2743,-3.9834 -5.4655,-2.1902 -17.76,-8.5806 -27.3197,-14.2013 -14.9514,-8.7905 -18.8147,-11.7285 -27.6381,-21.0184 -5.6416,-5.9399 -21.285,-23.507 -34.7631,-39.0377 -13.4778,-15.5304 -31.369,-36.6594 -39.7576,-46.9535 -8.3886,-10.2941 -21.4645,-27.0112 -29.0575,-37.1477 -7.5929,-10.1366 -16.3891,-20.4855 -19.5457,-22.9973 -3.1564,-2.5117 -8.413,-5.6452 -11.6802,-6.9646 -4.9372,-1.9934 -9.1548,-2.3758 -24.9521,-2.2664 z m -9.2338,273.3629 c -11.5271,0 -21.3258,0.6869 -26.0723,1.829 -4.1824,1.0062 -11.9461,3.513 -17.2521,5.5706 -5.3059,2.0574 -15.5718,7.1973 -22.8132,11.4211 -7.2413,4.2238 -17.5652,10.7336 -22.9425,14.4658 -5.3775,3.7322 -14.6657,10.9383 -20.6406,16.015 -5.9749,5.0766 -17.6349,17.0617 -25.911,26.6322 -14.378,16.6267 -16.9163,18.8861 -57.0266,50.7691 -23.0879,18.3522 -46.3811,36.1351 -51.7625,39.5185 -5.3815,3.3835 -13.5499,7.9352 -18.1539,10.1161 -4.6039,2.1807 -13.4033,5.2158 -19.5541,6.7433 -8.4205,2.0913 -15.0753,2.7783 -26.9358,2.7777 -8.6637,-5e-4 -21.2925,-0.663 -28.0646,-1.4729 -6.7722,-0.8098 -19.4158,-3.2436 -28.0964,-5.4078 -8.6806,-2.1642 -19.3532,-5.2956 -23.7171,-6.9569 -4.3639,-1.6613 -11.2112,-5.2163 -15.2152,-7.9006 -4.0039,-2.6845 -10.835,-8.9288 -15.1812,-13.8783 -4.3464,-4.9495 -10.3338,-13.2357 -13.3055,-18.4111 -2.9719,-5.1754 -9.2029,-17.0278 -13.8467,-26.3397 -4.6438,-9.3118 -13.0733,-27.1868 -18.7309,-39.7219 -5.6577,-12.5352 -11.9099,-25.4517 -13.8954,-28.7029 -1.9856,-3.2513 -6.2522,-8.9057 -9.48,-12.5656 -3.228,-3.6598 -8.2712,-8.0958 -11.2093,-9.8568 -2.938,-1.7611 -6.8092,-3.6508 -8.6016,-4.1996 -1.7925,-0.5488 -15.236,-0.9043 -29.8745,-0.791 -17.5287,0.1359 -30.1143,0.871 -36.8656,2.1545 -5.6381,1.0718 -16.1485,3.9467 -23.3564,6.3871 -7.2079,2.4404 -18.2391,6.5624 -24.5127,9.1598 -6.2737,2.5973 -17.3852,8.2299 -24.6932,12.5174 -7.3078,4.2875 -18.4969,11.9107 -24.8627,16.9408 -6.3661,5.0299 -16.1356,13.2377 -21.712,18.2407 -5.5764,5.0029 -14.9212,14.1587 -20.7659,20.3442 -5.8442,6.1856 -15.6678,17.4262 -21.8307,24.9813 -6.1631,7.5554 -12.6793,16.3813 -14.481,19.6118 l -3.2761,5.8733 9.9808,11.3956 c 5.517,6.2992 10.9225,11.3957 12.0877,11.3957 1.2115,0 7.8246,-6.5654 15.5525,-15.4401 7.3947,-8.4918 18.5131,-20.683 24.7058,-27.0926 6.193,-6.4095 16.1852,-16.1265 22.2065,-21.5932 6.0214,-5.4668 15.1547,-13.2269 20.2946,-17.2435 5.14,-4.0166 12.9232,-9.2582 17.2966,-11.6475 4.3734,-2.3894 14.0436,-6.7124 21.4893,-9.6074 7.4457,-2.895 16.4699,-6.1496 20.0549,-7.2317 3.5849,-1.0821 11.8583,-2.5943 18.385,-3.3601 6.5268,-0.7659 17.3149,-1.3914 23.9738,-1.3914 7.4712,0 14.1584,0.7303 17.4643,1.9076 2.9465,1.0494 7.6474,3.6499 10.4475,5.7792 2.8001,2.1294 7.2586,7.1807 9.9066,11.2253 2.648,4.0448 8.8337,16.7632 13.7469,28.2628 4.9133,11.4997 13.1143,29.4721 18.2238,39.9382 5.1096,10.466 11.2574,22.5454 13.662,26.8433 2.4046,4.2977 7.5228,12.3729 11.3727,17.9455 3.8499,5.5728 10.4785,13.3966 14.7314,17.386 4.2527,3.9892 9.9423,8.5799 12.6436,10.2001 2.7013,1.6201 8.0895,4.1852 11.9732,5.7029 3.8835,1.5175 12.1941,4.1822 18.4677,5.9192 6.2736,1.737 15.073,3.8789 19.5542,4.7616 4.4812,0.8828 13.0361,2.0243 19.011,2.5361 5.9749,0.512 17.2186,1.0039 24.9859,1.0938 7.7673,0.09 20.0382,-0.3863 27.2689,-1.0606 7.2307,-0.6744 17.9259,-2.4692 23.7658,-3.9861 5.8401,-1.5169 16.2199,-5.0723 23.0679,-7.9031 6.8479,-2.8309 16.9312,-7.8313 22.4059,-11.1108 5.4747,-3.2796 15.0861,-9.6634 21.3597,-14.1861 6.2737,-4.5226 19.2283,-14.6936 28.7881,-22.6029 9.5598,-7.9093 22.935,-18.5819 29.7238,-23.7173 6.7888,-5.1353 17.0547,-13.7377 22.8132,-19.1182 5.7584,-5.3803 18.537,-17.8103 28.3956,-27.6216 9.8586,-9.8113 21.591,-21.2192 26.0721,-25.3502 4.4813,-4.1313 14.5027,-11.2531 22.2701,-15.8267 8.1012,-4.7702 18.0222,-9.4919 23.2694,-11.0727 6.9576,-2.0956 11.3782,-2.6214 18.4678,-2.1978 8.114,0.4849 10.5165,1.2378 18.5548,5.82 5.0787,2.895 11.6925,7.2734 14.6976,9.7296 3.0049,2.4562 20.0333,18.2177 37.8394,35.0263 17.8063,16.8086 37.3462,35.1873 43.4219,40.8412 6.0758,5.6539 15.2515,13.6161 20.3923,17.6912 5.1408,4.075 14.1846,10.3817 20.0974,14.018 5.9127,3.6362 18.0796,10.2384 27.0376,14.6694 8.9582,4.431 19.9574,9.144 24.4428,10.4749 4.4853,1.331 13.7778,3.6322 20.6489,5.1128 6.8711,1.4808 20.3404,3.8577 29.9317,5.2831 9.9225,1.4745 24.9055,2.6612 34.763,2.7523 15.395,0.1428 18.5339,-0.2154 28.1876,-3.2177 5.9749,-1.8582 20.1517,-7.1494 31.504,-11.7594 11.3523,-4.6101 27.6784,-11.6778 36.28,-15.7046 8.6016,-4.0268 20.0896,-10.321 25.5292,-13.9876 5.4392,-3.6668 15.7396,-11.0572 22.8895,-16.422 7.1499,-5.3649 23.7709,-18.0958 36.9357,-28.2907 13.1647,-10.1949 28.0908,-21.3279 33.1695,-24.7422 5.0787,-3.4144 12.5336,-8.8163 16.5667,-12.0036 4.033,-3.1874 7.3328,-6.7177 7.3328,-7.8448 0,-1.1269 -1.7992,-7.9688 -3.9974,-15.2034 -2.1981,-7.2345 -4.7226,-14.1868 -5.6121,-15.4503 -1.2412,-1.7632 -2.5232,-2.1 -5.5102,-1.4499 -2.1406,0.4658 -6.3355,2.4325 -9.323,4.3701 -2.9874,1.9374 -9.3425,6.0547 -14.1225,9.1496 -4.7799,3.0949 -13.3348,8.8571 -19.0109,12.8047 -5.6762,3.9478 -13.8491,10.0096 -18.1624,13.4738 -4.3132,3.4643 -12.3178,10.4001 -17.7867,15.4122 -5.4691,5.0121 -14.0029,12.0534 -18.9643,15.6461 -4.9613,3.5927 -16.0222,10.3687 -24.5807,15.0585 -8.5585,4.6898 -21.6717,11.6604 -29.1403,15.491 -9.3089,4.7742 -17.2498,7.8138 -25.251,9.6633 -6.4195,1.4843 -17.9077,3.5793 -25.5291,4.655 -7.6216,1.0758 -19.5374,1.9532 -26.4796,1.9662 -6.9422,0.014 -16.9638,-0.8862 -22.2701,-1.9814 -5.3063,-1.0962 -15.2588,-3.7769 -22.1172,-5.9574 -6.8583,-2.1805 -18.3464,-6.6259 -25.5291,-9.8796 -7.1826,-3.2536 -20.8811,-10.4756 -30.441,-16.048 -9.5598,-5.5726 -22.0423,-13.8549 -27.7378,-18.406 -5.6954,-4.5511 -22.3164,-19.7537 -36.9356,-33.785 -14.6191,-14.0315 -34.4011,-32.5366 -43.9608,-41.1209 -9.5598,-8.5844 -19.7064,-17.4997 -22.5481,-19.8126 -2.8415,-2.3129 -8.9522,-6.3735 -13.5792,-9.0225 l -8.4128,-4.8152 z m 22.8386,261.3569 c -10.7409,-0.2488 -24.1844,0.2019 -29.8744,1.0023 -5.6901,0.8003 -15.7947,2.9167 -22.4546,4.7031 -6.66,1.7865 -16.2494,5.1965 -21.3089,7.5778 -5.0594,2.3811 -13.1516,7.1482 -17.984,10.5943 -4.8324,3.4461 -12.8439,9.9855 -17.8017,14.532 -4.9577,4.5465 -14.3906,13.1375 -20.963,19.0902 -6.5723,5.9528 -14.9021,13.2113 -18.5103,16.1294 -3.6083,2.9181 -16.5629,12.2005 -28.7881,20.6292 -12.2253,8.4287 -28.0938,19.5406 -35.2637,24.6914 -7.1698,5.1508 -16.9469,11.4601 -21.7268,14.0207 -4.7799,2.5607 -12.3572,6.3893 -16.8383,8.5085 -4.4812,2.1193 -15.1621,6.5579 -23.7362,9.8644 -8.5741,3.3064 -20.551,7.3305 -26.6154,8.9411 -9.8503,2.616 -13.8073,2.9139 -37.0991,2.7953 -14.3397,-0.072 -32.9162,-0.8245 -41.281,-1.6685 -8.3648,-0.8439 -20.3418,-2.4393 -26.6154,-3.5459 -6.2736,-1.1066 -16.2952,-3.1696 -22.2701,-4.5838 -5.9749,-1.414 -16.5066,-4.2713 -23.405,-6.3489 -6.8984,-2.0777 -16.5377,-5.542 -21.4193,-7.6997 -4.8817,-2.1578 -10.9164,-5.1715 -13.4117,-6.6975 -2.4951,-1.5261 -6.9825,-5.5058 -9.9702,-8.8418 -2.9876,-3.3358 -8.493,-11.0456 -12.234,-17.1342 -3.741,-6.0885 -12.5929,-17.8248 -19.6709,-26.0801 -7.0782,-8.2554 -17.2681,-19.4365 -22.6456,-24.8466 -5.3774,-5.4101 -14.0629,-13.7417 -19.3017,-18.5154 -5.2388,-4.7737 -11.8384,-10.0674 -14.6656,-11.7644 -2.8272,-1.6973 -7.5853,-4.0361 -10.5728,-5.1969 -2.9874,-1.1606 -8.9399,-2.6998 -13.227,-3.4187 -5.161,-0.8651 -17.2736,-0.8825 -35.8494,-0.053 -15.43,0.6888 -33.1868,2.1774 -39.4606,3.3068 -6.2736,1.1294 -17.7616,4.0111 -25.529,6.405 -7.7674,2.3938 -20.4776,7.1153 -28.2449,10.4925 -7.7674,3.3774 -20.6686,9.6139 -28.6692,13.8579 -8.0007,4.2442 -17.5333,9.8082 -21.1837,12.3649 -3.6505,2.5568 -9.8145,7.47 -13.6982,10.9199 -3.8836,3.4499 -8.5123,8.0981 -10.2863,10.3273 l -3.2229,4.0522 1.7631,12.4232 c 0.9697,6.8329 2.0011,12.711 2.2937,13.0617 0.2925,0.3507 5.8392,-2.5514 12.3253,-6.4507 6.486,-3.8992 19.37,-11.3357 28.6311,-16.5237 9.2611,-5.188 23.1934,-12.5372 30.9608,-16.3304 7.7673,-3.7933 19.7442,-8.6741 26.6154,-10.8488 6.8711,-2.1745 18.0103,-4.8593 24.7525,-5.9648 7.6645,-1.2566 20.2855,-2.0009 33.6767,-1.9866 14.1059,0.015 23.8554,0.6432 28.561,1.8391 3.9296,0.9986 10.2847,3.5545 14.1225,5.68 3.8377,2.1254 9.2981,5.8812 12.1321,8.3457 2.834,2.4648 15.1,15.1397 27.2583,28.1687 13.6401,14.6166 25.0179,28.0505 29.7111,35.0746 4.1834,6.2611 9.5712,14.6062 11.971,18.5459 2.3997,3.9396 6.7598,9.8418 9.6901,13.1152 2.9302,3.2734 7.5195,7.4646 10.1994,9.3149 2.6799,1.8504 9.6434,5.4832 15.4739,8.0736 5.8304,2.5904 16.3632,6.4398 23.4052,8.5542 7.042,2.1146 19.871,5.3137 28.508,7.1096 8.6372,1.796 22.0583,4.2077 29.8257,5.3571 7.7674,1.1493 21.4552,2.5358 30.4176,3.0829 8.9623,0.5472 23.3835,1.0713 32.0471,1.1624 8.6636,0.091 20.6033,-0.4 26.5326,-1.0911 5.9293,-0.6912 16.4396,-3.0601 23.3564,-5.2655 6.9167,-2.2055 22.5972,-7.9903 34.8457,-12.8557 12.2485,-4.8655 29.3585,-12.2046 38.0221,-16.3075 8.6635,-4.103 18.9295,-9.5633 22.8132,-12.1333 3.8837,-2.57 23.4378,-16.3813 43.4537,-30.6943 20.0159,-14.3132 41.7698,-30.3294 48.3423,-35.5912 6.5723,-5.2619 18.5492,-15.1521 26.6153,-21.9773 8.0661,-6.825 17.5988,-14.3951 21.1838,-16.8237 3.5849,-2.4287 9.4652,-5.3212 13.0679,-6.4279 3.6026,-1.1069 12.402,-2.6785 19.5541,-3.4925 9.4424,-1.0745 15.6187,-1.1021 22.5523,-0.081 5.2519,0.7702 14.0513,3.2516 19.5542,5.5147 5.5029,2.2631 19.7833,8.7912 31.7331,14.5039 11.9498,5.7129 29.0596,14.6086 38.022,19.7695 8.9623,5.1608 19.1026,11.5379 22.5351,14.1707 3.4324,2.6328 9.0543,7.5382 12.493,10.8997 3.4386,3.3616 9.4304,8.5732 13.3141,11.5813 3.8837,3.008 11.9498,8.7041 17.9247,12.6597 5.9748,3.9557 17.9518,11.1232 26.6154,15.9286 8.6635,4.8051 21.8627,11.8438 29.3312,15.6411 7.4686,3.7974 17.8313,8.4497 23.0276,10.3375 5.1964,1.8875 14.3116,4.5629 20.2565,5.9444 5.9446,1.3816 20.0249,3.1823 31.2896,4.0038 11.699,0.8518 32.3599,1.1948 48.1831,0.7962 19.3375,-0.4874 29.9717,-1.3158 35.2171,-2.7396 4.1329,-1.1217 10.9768,-3.3428 15.2088,-4.9373 4.232,-1.5945 12.7701,-6.0123 18.975,-9.8186 6.2047,-3.8062 17.4484,-11.8242 24.9858,-17.8158 7.5374,-5.9917 22.5039,-18.9469 33.2586,-28.7917 10.7548,-9.8447 22.9761,-21.5407 27.1585,-25.9888 4.1826,-4.4479 11.6269,-11.65 16.5435,-16.0047 4.9165,-4.3546 13.0917,-10.9232 18.1665,-14.5982 l 9.2276,-6.6821 -2.5589,-8.0736 c -1.407,-4.4407 -3.9071,-12.176 -5.5569,-17.1901 -1.6499,-5.0141 -3.55,-9.8383 -4.2223,-10.7217 -0.9347,-1.2283 -2.2408,-1.2695 -5.5483,-0.1754 -2.3787,0.7869 -8.2351,3.7835 -13.015,6.6619 -4.78,2.8783 -12.6016,8.332 -17.3814,12.1179 -4.78,3.786 -15.2904,13.4847 -23.3565,21.5526 -8.0661,8.0678 -25.6648,24.5573 -39.1083,36.644 -15.8277,14.2304 -27.8887,24.0278 -34.2198,27.7947 -5.3993,3.2126 -13.4252,6.7388 -17.9247,7.8778 -6.7593,1.711 -13.1451,1.9373 -37.4788,1.3252 -16.1322,-0.4057 -33.7107,-1.367 -39.0638,-2.1367 -5.3532,-0.7698 -13.4193,-2.2967 -17.9246,-3.3932 -4.5055,-1.0966 -13.814,-4.2374 -20.6851,-6.9773 -6.8712,-2.7398 -21.3869,-9.7126 -32.2572,-15.496 -10.8704,-5.7834 -26.0261,-14.2767 -33.6787,-18.874 -7.6527,-4.5972 -18.8019,-11.9989 -24.776,-16.45 -5.974,-4.4509 -17.3512,-13.6671 -25.2828,-20.4791 -7.9318,-6.8121 -19.5509,-15.5119 -25.8219,-19.3318 -7.8323,-4.7709 -22.5346,-11.3459 -46.9588,-21.0056 l -35.5544,-14.0672 z" />
    </g>
  </g>
</svg>
